<svg width="132" height="44" viewBox="0 0 132 44" fill="none" xmlns="http://www.w3.org/2000/svg">
<path d="M11.6337 0.976501V1.16207L10.8629 1.34764V9.56977L11.6337 9.75534V9.94091H7.97946V9.75534L8.7503 9.56977V2.56098L5.7241 10.0694H5.33866L1.41317 2.56098V9.36993L2.44093 9.75534V9.94091H0V9.75534L1.02777 9.36993V1.34764L0.256931 1.16207V0.976501H1.85567C2.09834 0.976501 2.31246 1.00505 2.48376 1.06215C2.65505 1.11925 2.82637 1.19062 2.95484 1.29054C3.09758 1.39046 3.21178 1.50466 3.3117 1.63313C3.41162 1.7616 3.49728 1.91862 3.58292 2.07564L6.38072 7.42859L8.5219 2.07564C8.59327 1.89007 8.66466 1.73305 8.76459 1.60458C8.85023 1.47611 8.9644 1.36191 9.09287 1.26199C9.22134 1.16207 9.37839 1.0907 9.56396 1.04787C9.74953 1.00505 9.9779 0.976501 10.2634 0.976501H11.6337Z" fill="#292F36"/>
<path d="M16.2016 3.36041C16.7298 3.36041 17.2151 3.43179 17.6291 3.5888C18.043 3.74582 18.3999 3.97422 18.6997 4.25971C18.9994 4.55947 19.2135 4.91634 19.3706 5.3303C19.5276 5.74426 19.599 6.22959 19.599 6.75775C19.599 7.28591 19.5276 7.77124 19.3706 8.1852C19.2135 8.59917 18.9851 8.95603 18.6997 9.25579C18.3999 9.55556 18.043 9.76968 17.6291 9.9267C17.2151 10.0837 16.7298 10.1551 16.2016 10.1551C15.6734 10.1551 15.1881 10.0837 14.7742 9.9267C14.3602 9.76968 14.0033 9.54129 13.7036 9.25579C13.4038 8.95603 13.1897 8.59917 13.0327 8.1852C12.8756 7.77124 12.8043 7.28591 12.8043 6.75775C12.8043 6.22959 12.8756 5.74426 13.0327 5.3303C13.1897 4.91634 13.4181 4.55947 13.7036 4.25971C14.0033 3.95994 14.3602 3.74582 14.7742 3.5888C15.1881 3.43179 15.6592 3.36041 16.2016 3.36041ZM16.2016 9.91242C16.3444 9.91242 16.4871 9.8696 16.6441 9.76968C16.7869 9.66976 16.9153 9.51274 17.0295 9.27007C17.1437 9.0274 17.2436 8.71336 17.315 8.31368C17.3864 7.89971 17.4292 7.38583 17.4292 6.77203C17.4292 6.14395 17.3864 5.63006 17.315 5.23038C17.2436 4.83069 17.1437 4.50237 17.0295 4.27398C16.9153 4.04559 16.7869 3.8743 16.6441 3.77438C16.5014 3.67445 16.3586 3.63163 16.2016 3.63163C16.0589 3.63163 15.9161 3.67445 15.7591 3.77438C15.6164 3.8743 15.4879 4.03131 15.3737 4.27398C15.2595 4.51665 15.1596 4.83069 15.0882 5.23038C15.0168 5.64434 14.974 6.15822 14.974 6.77203C14.974 7.4001 15.0168 7.91399 15.0882 8.31368C15.1596 8.71336 15.2595 9.04168 15.3737 9.27007C15.4879 9.49846 15.6164 9.66976 15.7591 9.76968C15.9018 9.85533 16.0446 9.91242 16.2016 9.91242Z" fill="#292F36"/>
<path d="M25.8369 0.976501C26.6077 0.976501 26.9931 1.36191 26.9931 2.13274V9.58405L27.7639 9.76962V9.95518H26.6077C26.2937 9.95518 26.051 9.91236 25.8654 9.81244C25.6798 9.71252 25.5228 9.59832 25.4229 9.48413C25.2944 9.34138 25.1945 9.17009 25.1374 8.99879C25.0232 9.22718 24.8805 9.41275 24.7092 9.58405C24.5664 9.72679 24.3666 9.85526 24.1239 9.98373C23.8812 10.1122 23.5957 10.1693 23.2674 10.1693C22.8963 10.1693 22.5537 10.0979 22.2397 9.95518C21.9114 9.81244 21.6402 9.59832 21.4118 9.31283C21.1834 9.02734 20.9835 8.67048 20.8551 8.25652C20.7123 7.82828 20.6552 7.34294 20.6552 6.77196C20.6552 6.20098 20.7266 5.71565 20.8551 5.28741C20.9978 4.85918 21.1834 4.51659 21.4403 4.2311C21.683 3.94561 21.9828 3.73149 22.3254 3.58874C22.6679 3.446 23.0533 3.37462 23.4816 3.37462C23.71 3.37462 23.9098 3.40317 24.0954 3.446C24.2809 3.50309 24.438 3.56019 24.5664 3.63157C24.7234 3.70294 24.8519 3.78859 24.9661 3.88851V1.39046L24.1953 1.20489V1.01933H25.8369V0.976501ZM24.9376 4.25964C24.8377 4.15972 24.752 4.07408 24.6378 4.0027C24.5379 3.93133 24.438 3.87423 24.3238 3.81713C24.2096 3.76004 24.0954 3.74576 23.9669 3.74576C23.8099 3.74576 23.6529 3.78859 23.5101 3.87423C23.3674 3.95988 23.2532 4.10262 23.139 4.31674C23.039 4.53086 22.9534 4.8449 22.8963 5.23031C22.8392 5.63 22.8107 6.12961 22.8107 6.75769C22.8107 7.37149 22.8392 7.85683 22.8963 8.24224C22.9534 8.62765 23.0248 8.92742 23.1247 9.14153C23.2104 9.35565 23.3103 9.51267 23.4388 9.58405C23.553 9.65542 23.6671 9.69824 23.7813 9.69824C23.9812 9.69824 24.1525 9.64114 24.2952 9.54122C24.4379 9.4413 24.5521 9.31283 24.6521 9.18436C24.7663 9.02734 24.8662 8.85604 24.9519 8.67048V4.25964H24.9376Z" fill="#292F36"/>
<path d="M32.0606 10.1694C30.9614 10.1694 30.105 9.86961 29.5054 9.27008C28.8916 8.67055 28.5919 7.82835 28.5919 6.77203C28.5919 6.24388 28.6632 5.75854 28.8203 5.34458C28.9773 4.93062 29.1914 4.57375 29.4626 4.27399C29.7338 3.97422 30.0621 3.76011 30.4618 3.60309C30.8472 3.44607 31.2755 3.37469 31.7465 3.37469C32.2319 3.37469 32.6601 3.44607 33.0313 3.57454C33.4167 3.71728 33.7307 3.90285 34.0019 4.13125C34.2731 4.35964 34.473 4.63085 34.6157 4.94489C34.7585 5.25893 34.8298 5.58725 34.8298 5.94411C34.8298 6.05831 34.8299 6.1725 34.8156 6.25815C34.8013 6.3438 34.787 6.42945 34.7728 6.50082C34.7442 6.58647 34.7299 6.65784 34.7014 6.71494C34.3302 6.78631 33.9305 6.85768 33.5023 6.9005C33.1454 6.9576 32.7315 7.00043 32.2604 7.02898C31.7894 7.05752 31.304 7.08607 30.7901 7.08607C30.7901 7.61423 30.833 8.05674 30.9043 8.41361C30.9757 8.77047 31.0899 9.05596 31.2184 9.2558C31.3611 9.46992 31.5181 9.61267 31.7037 9.69831C31.8893 9.78396 32.1034 9.82679 32.3175 9.82679C32.5745 9.82679 32.8171 9.78396 33.0455 9.68404C33.2739 9.58412 33.4737 9.46992 33.6308 9.3129C33.8021 9.15588 33.9305 8.97031 34.0305 8.77047C34.1304 8.57063 34.1732 8.37078 34.1732 8.15666H34.4872C34.4872 8.41361 34.4302 8.65627 34.316 8.89894C34.2018 9.14161 34.0305 9.35572 33.8163 9.54129C33.6022 9.72686 33.3453 9.86961 33.0455 9.9838C32.76 10.1123 32.4317 10.1694 32.0606 10.1694ZM30.7759 6.75776C31.0614 6.75776 31.3183 6.75776 31.5467 6.74349C31.7751 6.72921 31.9606 6.71494 32.1177 6.70066C32.3032 6.68639 32.446 6.65784 32.5745 6.64356C32.5887 6.55791 32.6173 6.45799 32.6316 6.35807C32.6459 6.25815 32.6601 6.15823 32.6744 6.04403C32.6887 5.92984 32.6886 5.80137 32.6886 5.6729C32.6886 5.28748 32.6601 4.95917 32.603 4.70223C32.5459 4.44529 32.4745 4.23117 32.3746 4.05987C32.289 3.90285 32.189 3.77438 32.0606 3.71728C31.9321 3.66019 31.8322 3.61736 31.718 3.61736C31.6038 3.61736 31.4896 3.66019 31.3754 3.74583C31.2612 3.83148 31.1613 3.9885 31.0614 4.20262C30.9757 4.43101 30.8901 4.74505 30.833 5.15901C30.7759 5.57297 30.7759 6.10113 30.7759 6.75776Z" fill="#292F36"/>
<path d="M40.2256 3.80287C39.9687 3.80287 39.7403 3.85997 39.5405 3.95989C39.3406 4.05981 39.1693 4.18828 39.0266 4.31675C38.8695 4.47377 38.7411 4.64507 38.6126 4.83064V9.58406L39.3834 9.76963V9.9552H35.7863V9.76963L36.5571 9.58406V3.93134L35.7863 3.74577V3.5602H36.9425C37.2423 3.5602 37.4849 3.6173 37.6847 3.71722C37.8703 3.81714 38.0273 3.93134 38.1415 4.04554C38.27 4.18828 38.37 4.3453 38.4271 4.5166C38.5555 4.33103 38.7125 4.15973 38.8981 4.00271C39.0551 3.87424 39.255 3.76005 39.4976 3.64585C39.7403 3.53166 40.0115 3.48883 40.3398 3.48883C40.7966 3.48883 41.1392 3.60303 41.3676 3.80287C41.596 4.01699 41.6959 4.31675 41.6959 4.70217C41.6959 4.98766 41.6103 5.23032 41.439 5.40162C41.2677 5.57291 41.025 5.65856 40.7395 5.65856C40.6681 5.65856 40.611 5.65856 40.5397 5.65856C40.4683 5.65856 40.4255 5.64429 40.3827 5.64429C40.3256 5.63001 40.2684 5.63001 40.2256 5.60146V3.80287Z" fill="#292F36"/>
<path d="M47.2201 5.47304C47.2201 5.18755 47.1916 4.93061 47.1345 4.71649C47.0774 4.50237 47.0061 4.33107 46.9061 4.2026C46.8205 4.05986 46.7206 3.95993 46.5921 3.90284C46.4779 3.84574 46.3637 3.80292 46.2495 3.80292C46.0496 3.80292 45.8784 3.86001 45.7356 3.95994C45.5929 4.05986 45.4644 4.18833 45.3787 4.3168C45.2645 4.47382 45.1789 4.64511 45.0932 4.83068V9.5841L45.8641 9.76967V9.95524H42.2669V9.76967L43.0377 9.5841V3.93139L42.2669 3.74582V3.56025H43.4231C43.7229 3.56025 43.9656 3.61735 44.1654 3.71727C44.351 3.81719 44.508 3.93139 44.6222 4.04558C44.7507 4.18833 44.8506 4.34535 44.9077 4.51664C45.0219 4.30252 45.1646 4.10268 45.3359 3.93139C45.4787 3.78864 45.6785 3.66017 45.9069 3.5317C46.1353 3.40323 46.435 3.34613 46.7776 3.34613C47.1488 3.34613 47.4914 3.40323 47.7911 3.5317C48.1052 3.6459 48.3621 3.81719 48.5762 4.00276C48.7903 4.2026 48.9617 4.41672 49.0901 4.67366C49.2186 4.9306 49.2757 5.18754 49.2757 5.45876V9.56983L50.0465 9.7554V9.94097H48.3764C47.6056 9.94097 47.2201 9.55555 47.2201 8.78473V5.47304Z" fill="#292F36"/>
<path d="M1.35608 18.9767V18.4485H11.2769V18.9767L9.19278 19.5049V30.2821H16.6726V19.5049L14.5886 18.9767V18.4485H24.5094V18.9767L22.4253 19.5049V41.7731L24.5094 42.3013V42.8295H14.5886V42.287L16.6726 41.7589V31.1529H9.19278V41.7589L11.2769 42.287V42.8152H1.35608V42.287L3.44015 41.7589V19.4906L1.35608 18.9767Z" fill="#292F36"/>
<path d="M36.8426 24.8864C38.2843 24.8864 39.569 25.1005 40.7109 25.5145C41.8529 25.9284 42.8093 26.5422 43.6087 27.3416C44.408 28.141 45.0218 29.1116 45.4358 30.2536C45.8498 31.3956 46.0639 32.6803 46.0639 34.122C46.0639 35.5637 45.8498 36.8484 45.4358 37.9904C45.0218 39.1324 44.408 40.0888 43.6087 40.8881C42.8093 41.6875 41.8386 42.3013 40.7109 42.7153C39.569 43.1292 38.2843 43.3434 36.8426 43.3434C35.4008 43.3434 34.1161 43.1292 32.9742 42.7153C31.8322 42.3013 30.8758 41.6875 30.0764 40.8881C29.2771 40.0888 28.6633 39.1181 28.2493 37.9904C27.8353 36.8484 27.6212 35.5637 27.6212 34.122C27.6212 32.6803 27.8353 31.3956 28.2493 30.2536C28.6633 29.1116 29.2771 28.1553 30.0764 27.3416C30.8758 26.528 31.8465 25.9284 32.9742 25.5145C34.1161 25.1005 35.4008 24.8864 36.8426 24.8864ZM36.8426 42.6296C37.2422 42.6296 37.6277 42.5012 38.0274 42.2442C38.4271 41.9873 38.7696 41.5448 39.0837 40.9024C39.3977 40.2601 39.6547 39.3893 39.8545 38.2902C40.0543 37.191 40.1543 35.7921 40.1543 34.0935C40.1543 32.3948 40.0543 30.9959 39.8545 29.8967C39.6547 28.7976 39.3977 27.9269 39.0837 27.2845C38.7696 26.6422 38.4128 26.1996 38.0274 25.9427C37.642 25.6858 37.2422 25.5573 36.8426 25.5573C36.4429 25.5573 36.0575 25.6858 35.6578 25.9427C35.2581 26.1996 34.9155 26.6422 34.6014 27.2845C34.2874 27.9269 34.0305 28.7976 33.8306 29.8967C33.6308 30.9959 33.5309 32.3948 33.5309 34.0935C33.5309 35.7921 33.6308 37.191 33.8306 38.2902C34.0305 39.3893 34.2874 40.2601 34.6014 40.9024C34.9155 41.5448 35.2724 41.9873 35.6578 42.2442C36.0575 42.5012 36.4429 42.6296 36.8426 42.6296Z" fill="#292F36"/>
<path d="M72.1435 30.6247C72.1435 29.7968 72.0721 29.0831 71.9294 28.5263C71.7866 27.9696 71.6153 27.4986 71.387 27.1417C71.1586 26.7849 70.9159 26.5279 70.6589 26.3566C70.3877 26.1996 70.1308 26.1139 69.8739 26.1139C69.4313 26.1139 69.0459 26.2567 68.7033 26.5422C68.3607 26.8277 68.0753 27.156 67.8183 27.4986C67.5471 27.9125 67.2901 28.3836 67.0903 28.8832V41.7588L69.1887 42.287V42.8152H59.4534V42.287L61.5375 41.7588V30.6247C61.5375 29.7968 61.4661 29.0831 61.3234 28.5263C61.1806 27.9696 61.0093 27.4986 60.7809 27.1417C60.5525 26.7849 60.3099 26.5279 60.053 26.3566C59.7818 26.1996 59.5248 26.1139 59.2678 26.1139C58.8253 26.1139 58.44 26.2567 58.0974 26.5422C57.7548 26.8277 57.4692 27.156 57.2123 27.4986C56.9268 27.9125 56.6842 28.3836 56.4843 28.8832V41.7588L58.5684 42.287V42.8152H48.8332V42.287L50.9173 41.7588V26.4565L48.8332 25.9284V25.4002H51.9593C52.7729 25.4002 53.4438 25.543 53.9577 25.8142C54.4859 26.0854 54.8856 26.3994 55.1996 26.7135C55.5422 27.1132 55.7991 27.5414 55.9704 27.9982C56.2702 27.4129 56.6413 26.899 57.0838 26.428C57.4835 26.0283 57.9689 25.6714 58.5399 25.3431C59.1251 25.0148 59.8246 24.8578 60.6668 24.8578C62.0514 24.8578 63.2647 25.1718 64.2639 25.7856C65.2774 26.3994 66.0483 27.1988 66.5764 28.1695C66.8762 27.5699 67.2473 27.0275 67.6899 26.5279C68.0895 26.114 68.5749 25.7285 69.1458 25.3859C69.7311 25.0434 70.4305 24.8578 71.2727 24.8578C72.2291 24.8578 73.0856 25.0148 73.885 25.3146C74.6701 25.6143 75.3553 26.0283 75.9262 26.5565C76.4972 27.0846 76.9397 27.6841 77.2538 28.3836C77.5678 29.0831 77.7248 29.8253 77.7248 30.6104V41.7446L79.8089 42.2727V42.8009H75.2839C73.1998 42.8009 72.1577 41.7588 72.1577 39.6748V30.6247H72.1435Z" fill="#292F36"/>
<path d="M91.2856 43.329C88.3165 43.329 86.0041 42.5154 84.3625 40.8738C82.7209 39.2323 81.893 36.9911 81.893 34.1077C81.893 32.666 82.1071 31.3813 82.5211 30.2393C82.935 29.0973 83.5203 28.1409 84.2626 27.3273C85.0048 26.5279 85.9041 25.9141 86.9605 25.5001C88.0168 25.0862 89.173 24.8721 90.4149 24.8721C91.7139 24.8721 92.8844 25.0576 93.9122 25.4288C94.9399 25.7999 95.8249 26.2995 96.5387 26.9276C97.2524 27.5557 97.8091 28.298 98.1945 29.1402C98.5799 29.9824 98.7655 30.8816 98.7655 31.838C98.7655 32.1664 98.7512 32.4518 98.7084 32.6945C98.6656 32.9372 98.637 33.1513 98.5799 33.3369C98.5085 33.5653 98.4514 33.7651 98.4086 33.9221C97.3809 34.1362 96.3103 34.3075 95.1683 34.4503C94.1976 34.593 93.0699 34.7072 91.7995 34.8214C90.5291 34.9213 89.1873 34.9784 87.8027 34.9784C87.8027 36.4202 87.9026 37.6192 88.1167 38.5756C88.3308 39.532 88.6163 40.3028 88.9874 40.8738C89.3586 41.4448 89.8011 41.8445 90.3149 42.0872C90.8288 42.3298 91.3856 42.4583 91.9851 42.4583C92.6845 42.4583 93.3412 42.3298 93.955 42.0729C94.5688 41.8159 95.0969 41.4734 95.5537 41.0451C96.0105 40.6169 96.3674 40.1315 96.6386 39.5891C96.9098 39.0467 97.0383 38.49 97.0383 37.9333H97.909C97.909 38.6327 97.752 39.3036 97.438 39.946C97.1239 40.6026 96.6814 41.1736 96.0962 41.6732C95.5109 42.1728 94.8257 42.5725 94.0121 42.8723C93.1842 43.172 92.2706 43.329 91.2856 43.329ZM87.8027 34.1077C88.5878 34.1077 89.2872 34.0934 89.8867 34.0506C90.4863 34.0078 91.0001 33.9792 91.4141 33.9364C91.8994 33.8936 92.3134 33.8365 92.6703 33.7651C92.7131 33.5367 92.7702 33.2798 92.8416 32.9943C92.8844 32.7373 92.9272 32.4518 92.9557 32.1378C92.9843 31.8238 93.0128 31.4955 93.0128 31.1529C93.0128 30.1108 92.9272 29.2401 92.7702 28.5263C92.6131 27.8126 92.399 27.2416 92.1564 26.7991C91.9137 26.3566 91.6282 26.0426 91.3285 25.857C91.0144 25.6714 90.7004 25.5715 90.4006 25.5715C90.1008 25.5715 89.7868 25.6857 89.4727 25.8998C89.1587 26.1282 88.8875 26.5422 88.6448 27.156C88.4022 27.7698 88.2023 28.6405 88.0311 29.754C87.8883 30.8674 87.8027 32.3234 87.8027 34.1077Z" fill="#292F36"/>
<path d="M115.852 42.4583V28.3408L103.376 18.4628V42.4583H115.852Z" fill="#292F36"/>
<path d="M131.283 42.4583V28.3408L119.007 18.4628V42.4583H131.283Z" fill="#292F36"/>
</svg>
