<svg width="103" height="103" viewBox="0 0 103 103" fill="none" xmlns="http://www.w3.org/2000/svg">
<path d="M51.4428 101.606C79.3035 101.606 101.889 79.0206 101.889 51.16C101.889 23.2993 79.3035 0.713745 51.4428 0.713745C23.5821 0.713745 0.996613 23.2993 0.996613 51.16C0.996613 79.0206 23.5821 101.606 51.4428 101.606Z" fill="white"/>
<path d="M51.4428 102.32C23.2364 102.32 0.282898 79.3664 0.282898 51.1599C0.282898 22.9535 23.2364 0 51.4428 0C79.6493 0 102.603 22.9535 102.603 51.1599C102.603 79.3664 79.6493 102.32 51.4428 102.32ZM51.4428 1.42745C24.0215 1.42745 1.71035 23.7386 1.71035 51.1599C1.71035 78.5813 24.0215 100.892 51.4428 100.892C78.8642 100.892 101.175 78.5813 101.175 51.1599C101.175 23.7386 78.8642 1.42745 51.4428 1.42745Z" fill="#292F36"/>
<path d="M58.6373 5.83827C58.9798 5.86682 59.2796 5.88109 59.5223 5.88109L59.4937 6.10949C59.094 6.16658 58.7514 6.46635 58.4802 7.03733L55.0829 13.832L54.983 13.8177L54.8973 13.8035L52.7419 6.22368C52.5991 5.72407 52.3565 5.45286 52.0139 5.41003L52.0424 5.18164C52.3565 5.23874 52.7704 5.28156 53.2843 5.33866C53.9552 5.39576 54.4548 5.43858 54.7831 5.43858L54.7546 5.66697C54.4548 5.6527 54.2407 5.66697 54.1122 5.7098C53.9838 5.75262 53.9124 5.86682 53.8981 6.00956C53.8838 6.13803 53.9124 6.3236 53.9838 6.56627L55.5682 12.3617L57.9235 7.62259C58.1234 7.23717 58.2233 6.92313 58.2518 6.69474C58.2804 6.45207 58.209 6.26651 58.052 6.13803C57.895 6.00956 57.638 5.93819 57.2954 5.89537L57.324 5.66697C57.738 5.73835 58.1805 5.79545 58.6373 5.83827Z" fill="#292F36"/>
<path d="M68.2297 8.85028C68.087 8.85028 67.9728 8.90737 67.8871 9.02157C67.8015 9.13577 67.7016 9.32134 67.6016 9.59255L65.5604 15.0169C65.4605 15.2881 65.4034 15.5022 65.4034 15.645C65.4034 15.7877 65.4462 15.9019 65.5461 15.9875C65.646 16.0732 65.8316 16.1731 66.0885 16.2873L66.0029 16.5014C65.6746 16.3587 65.2178 16.1731 64.6325 15.9447C64.0045 15.7021 63.5334 15.545 63.2194 15.4451L63.305 15.231C63.5762 15.3166 63.7761 15.3595 63.9045 15.3595C64.033 15.3595 64.1615 15.3024 64.2471 15.1882C64.3328 15.074 64.4327 14.8884 64.5326 14.6172L66.5739 9.19286C66.6738 8.92165 66.7309 8.70753 66.7309 8.56479C66.7309 8.42204 66.6881 8.30784 66.5882 8.2222C66.4882 8.13655 66.3027 8.03663 66.0457 7.92243L66.1314 7.70831C66.4311 7.83678 66.8879 8.02235 67.516 8.26502C68.1012 8.49341 68.5723 8.65043 68.9149 8.75035L68.8293 8.96447C68.5723 8.87883 68.3725 8.836 68.2297 8.85028Z" fill="#292F36"/>
<path d="M80.9341 16.4014C80.7913 16.3729 80.6486 16.4157 80.5201 16.5014C80.3916 16.587 80.2346 16.7583 80.0633 17.001L75.9237 22.6109L75.7096 22.4538L76.2663 13.4323L72.5977 18.3999C72.4264 18.6425 72.3122 18.8424 72.2551 18.9994C72.198 19.1564 72.2266 19.2992 72.298 19.4419C72.3693 19.5847 72.5406 19.7417 72.7833 19.9415L72.6405 20.1271C72.4264 19.9415 72.1124 19.6989 71.6984 19.3848C71.3273 19.1136 71.0275 18.8995 70.7991 18.771L70.9419 18.5854C71.1703 18.7425 71.3558 18.8281 71.4986 18.8424C71.6413 18.8709 71.7841 18.8281 71.9125 18.7425C72.041 18.6425 72.198 18.4855 72.3693 18.2429L75.7381 13.675C75.9094 13.4323 76.0236 13.2468 76.0664 13.1183C76.1093 12.9898 76.095 12.8614 76.0236 12.7472C75.9522 12.633 75.8095 12.4902 75.5811 12.3046L75.7238 12.1191C75.9094 12.2904 76.1949 12.5188 76.5803 12.79C76.8658 13.0041 77.1085 13.1754 77.3369 13.3039L76.8801 20.8694L79.8492 16.844C80.0205 16.6013 80.149 16.4014 80.1918 16.2444C80.2346 16.0874 80.2203 15.9447 80.149 15.8019C80.0776 15.6592 79.9063 15.4879 79.6636 15.3023L79.8064 15.1167C80.0205 15.3023 80.3345 15.545 80.7485 15.859C81.1196 16.1302 81.4194 16.3443 81.6478 16.4728L81.505 16.6584C81.2624 16.5156 81.0768 16.4157 80.9341 16.4014Z" fill="#292F36"/>
<path d="M85.716 22.8392C86.0872 22.568 86.4726 22.2682 86.8865 21.8971C87.2434 22.4395 87.8715 23.3388 88.7708 24.6093C89.6701 25.8654 90.3124 26.7504 90.6978 27.2643C90.2125 27.5498 89.7985 27.8068 89.4274 28.0637C89.1134 28.2921 88.8564 28.4919 88.6709 28.6489L88.5138 28.4348C88.9706 28.0351 89.2847 27.7068 89.4702 27.4642C89.6558 27.2215 89.7272 26.9646 89.7129 26.6933C89.6986 26.4221 89.5273 26.0938 89.2561 25.6941L88.885 25.1802L83.4749 29.0344C83.218 29.2199 83.0324 29.3912 82.9468 29.5197C82.8611 29.6482 82.8326 29.8052 82.8897 29.9765C82.9325 30.1335 83.061 30.3619 83.2465 30.6474L83.061 30.7901C82.8468 30.4475 82.5185 29.9622 82.0903 29.377C81.6335 28.7346 81.2909 28.2778 81.0625 27.9923L81.2481 27.8496C81.4622 28.1208 81.6335 28.3064 81.7763 28.4063C81.919 28.5062 82.0617 28.5348 82.2188 28.4919C82.3758 28.4491 82.5899 28.3349 82.8468 28.1493L88.2569 24.2952L87.8858 23.7813C87.6003 23.3816 87.3433 23.139 87.1007 23.0248C86.858 22.9106 86.5868 22.8963 86.3013 22.9962C86.0158 23.0962 85.6018 23.2817 85.0737 23.5815L84.9167 23.3674C85.1308 23.2532 85.3877 23.0819 85.716 22.8392Z" fill="#292F36"/>
<path d="M88.4567 42.6524L88.2283 42.7237C88.1427 42.4097 88.0285 42.01 87.8572 41.5247C87.6431 40.8966 87.4718 40.4255 87.3433 40.1115L87.5717 40.0401C87.6716 40.3113 87.7858 40.5112 87.8715 40.6111C87.9714 40.711 88.0999 40.7396 88.2426 40.6825C88.3711 40.6396 88.5281 40.5397 88.7137 40.3827L90.2981 39.0837L89.3988 36.4144L88.0713 36.3573C87.6431 36.3287 87.3148 36.3573 87.0864 36.4429C86.858 36.5286 86.7152 36.657 86.6581 36.8426C86.6153 37.0282 86.6439 37.2994 86.7438 37.6277L86.5154 37.6991C86.4012 37.2709 86.2585 36.8426 86.1157 36.4144C86.0015 36.0861 85.9016 35.8149 85.8017 35.6007L86.0301 35.5294C86.2299 35.8719 86.6581 36.0575 87.2862 36.0718L94.8803 36.4144L94.9374 36.5857L88.885 41.6246C88.5138 41.9814 88.3711 42.3098 88.4567 42.6524ZM93.41 36.5857L89.6701 36.4287L90.5123 38.941L93.41 36.5857Z" fill="#292F36"/>
<path d="M89.4988 53.5724C89.6415 53.5153 89.7129 53.4439 89.7129 53.344C89.7129 53.2869 89.6986 53.2441 89.6701 53.2013C89.6415 53.1584 89.5844 53.0728 89.4988 52.9586C89.2847 52.6874 89.1276 52.4019 89.0134 52.1164C88.8993 51.8309 88.8422 51.5026 88.8422 51.1457C88.8279 50.3464 88.9849 49.6612 89.2989 49.0759C89.6273 48.4907 90.084 48.0481 90.7121 47.7341C91.3259 47.4201 92.0682 47.263 92.939 47.2488C93.8382 47.2345 94.6233 47.3772 95.2942 47.6913C95.9651 48.0053 96.4933 48.4336 96.8644 49.0045C97.2356 49.5755 97.4354 50.2179 97.4354 50.9316C97.4354 51.2456 97.4069 51.5311 97.3498 51.7738C97.2927 52.0165 97.207 52.2306 97.1071 52.4162C97.0072 52.6017 96.8787 52.8158 96.7074 53.0442C96.6361 53.1442 96.5932 53.2298 96.5932 53.2869C96.5932 53.4297 96.8359 53.5296 97.307 53.5724V53.8436C96.8073 53.8151 95.908 53.8151 94.6233 53.8436V53.5724C95.0373 53.501 95.3799 53.4154 95.6511 53.3297C95.9223 53.2441 96.1507 53.1156 96.3506 52.9586C96.6218 52.7302 96.8502 52.4304 97.0072 52.0593C97.1642 51.6882 97.2356 51.317 97.2356 50.9173C97.2213 50.4034 97.05 49.9609 96.7074 49.5755C96.3648 49.1901 95.8795 48.9046 95.2657 48.6905C94.6376 48.4907 93.9239 48.3907 93.096 48.405C92.1538 48.4193 91.3973 48.5335 90.7978 48.7476C90.1982 48.9617 89.77 49.2758 89.4845 49.6897C89.199 50.1037 89.0705 50.6318 89.0848 51.2742C89.0991 51.7453 89.2276 52.1449 89.4702 52.4875C89.5702 52.6303 89.6558 52.7159 89.7557 52.7587C89.8414 52.8016 89.9698 52.8158 90.1269 52.8158L91.2546 52.8016C91.5829 52.8016 91.8113 52.7587 91.9683 52.7016C92.111 52.6445 92.2252 52.5304 92.268 52.3591C92.3251 52.202 92.3537 51.9451 92.3537 51.6025H92.5821C92.5678 51.9879 92.5535 52.5304 92.5678 53.2584C92.5821 53.8008 92.5964 54.2147 92.6249 54.4717H92.3965C92.3822 54.2861 92.3394 54.1577 92.2966 54.0863C92.2538 54.0149 92.1538 53.9578 92.0254 53.9293C91.8969 53.9007 91.6828 53.8864 91.383 53.9007L89.0705 53.9435V53.7151C89.199 53.658 89.356 53.6295 89.4988 53.5724Z" fill="#292F36"/>
<path d="M87.8001 65.7199C87.3862 65.5915 86.9008 65.463 86.3441 65.3488C86.5297 64.8492 86.8009 64.007 87.1863 62.8079C87.6431 61.3805 87.9714 60.2956 88.1713 59.5676L88.3996 59.639C88.3283 59.9102 88.2997 60.11 88.2997 60.2528C88.314 60.3955 88.3711 60.4954 88.4853 60.5811C88.5995 60.6667 88.7993 60.7524 89.0706 60.838L94.5948 62.5795C94.8803 62.6652 95.0801 62.708 95.2229 62.708C95.3656 62.708 95.4798 62.6509 95.5655 62.5367C95.6511 62.4225 95.7368 62.2369 95.8367 61.98L96.0651 62.0514C95.8081 62.7794 95.4655 63.85 95.0088 65.2774C94.6662 66.3623 94.4235 67.1474 94.3093 67.6184C93.8382 67.4186 93.41 67.2473 93.0103 67.1331C92.7248 67.0475 92.4822 66.9761 92.3109 66.9475L92.3965 66.6906C92.8961 66.7905 93.2815 66.8333 93.5385 66.8333C93.7954 66.8333 94.0095 66.7477 94.1808 66.5764C94.3521 66.4194 94.4949 66.1339 94.6233 65.7485L94.9088 64.8206C94.9945 64.5494 95.0373 64.3496 95.023 64.2211C95.0088 64.0926 94.9659 63.9784 94.8517 63.8928C94.7375 63.8071 94.552 63.7215 94.2665 63.6358L91.64 62.8079L91.4116 63.5502C91.2974 63.9213 91.3259 64.2068 91.5115 64.4067C91.6971 64.6065 91.8969 64.7493 92.1253 64.8492C92.3537 64.9491 92.4964 65.0205 92.5535 65.049L92.4679 65.306C92.111 65.1632 91.7684 65.0347 91.4258 64.9348L90.8977 64.7778C90.5266 64.6636 89.9841 64.5066 89.2989 64.3496L89.3846 64.0926C89.4417 64.1069 89.6273 64.1354 89.9413 64.2068C90.2553 64.2639 90.5266 64.2354 90.7407 64.1212C90.9548 64.007 91.0975 63.7929 91.1975 63.4931L91.4258 62.7508L88.7422 61.9086C88.4567 61.823 88.2569 61.7801 88.1142 61.7801C87.9714 61.7801 87.8572 61.8373 87.7858 61.9514C87.7002 62.0656 87.6145 62.2512 87.5289 62.5224L87.272 63.3361C87.1292 63.8071 87.0721 64.1783 87.1292 64.4495C87.172 64.735 87.3148 64.9634 87.5574 65.1632C87.8001 65.3488 88.1713 65.5629 88.6709 65.7913L88.5852 66.0482C88.4139 65.9198 88.1427 65.8341 87.8001 65.7199Z" fill="#292F36"/>
<path d="M83.7319 83.2348C83.789 83.1064 83.7747 82.9779 83.7176 82.8494C83.6605 82.7209 83.5177 82.5639 83.3036 82.3498L79.1069 78.3387C78.8928 78.1388 78.7215 78.0104 78.593 77.9533C78.4646 77.8962 78.3361 77.8962 78.2076 77.9533C78.0792 78.0104 77.9221 78.1388 77.7223 78.3387L77.551 78.1816C77.8222 77.939 78.1648 77.5821 78.6073 77.1396C79.0641 76.6543 79.4067 76.2831 79.6208 76.0405L79.7921 76.1975C79.6065 76.4116 79.4923 76.5829 79.4352 76.6971C79.3781 76.8256 79.3924 76.954 79.4495 77.0825C79.5066 77.211 79.6493 77.368 79.8635 77.5821L84.0602 81.5933C84.2743 81.7931 84.4456 81.9216 84.5741 81.9787C84.7025 82.0358 84.831 82.0358 84.9595 81.9787C85.0879 81.9216 85.245 81.7931 85.4448 81.5933L85.6161 81.7503C85.3734 81.9644 85.0166 82.3213 84.5598 82.8066C84.1173 83.2634 83.789 83.6345 83.5606 83.9057L83.3893 83.7487C83.5606 83.5346 83.6748 83.3633 83.7319 83.2348Z" fill="#292F36"/>
<path d="M71.8412 91.9423C71.9268 91.8138 71.9411 91.6853 71.9126 91.5283C71.884 91.3713 71.7841 91.1714 71.6271 90.9002L68.087 84.8906L68.3154 84.7479L76.3948 88.7876L73.2686 83.4775C73.1116 83.2205 72.9832 83.035 72.8547 82.935C72.7262 82.8351 72.5835 82.7923 72.4265 82.8066C72.2694 82.8208 72.0553 82.9065 71.7841 83.0492L71.6556 82.8494C71.9126 82.7352 72.2552 82.5353 72.6977 82.2784C73.0974 82.0357 73.3971 81.8502 73.6112 81.6931L73.7254 81.893C73.497 82.0357 73.34 82.1785 73.2686 82.307C73.183 82.4354 73.1687 82.5639 73.1973 82.7209C73.2258 82.8779 73.3257 83.0778 73.4828 83.349L76.3662 88.2452C76.509 88.5021 76.6374 88.6734 76.7516 88.759C76.8658 88.8447 76.98 88.8875 77.1228 88.859C77.2512 88.8304 77.4511 88.759 77.6938 88.6306L77.808 88.8304C77.5796 88.9446 77.2655 89.1159 76.8516 89.3586C76.5518 89.5299 76.2948 89.7012 76.0807 89.8439L69.3003 86.4608L71.8412 90.7718C71.9982 91.0287 72.1267 91.2143 72.2552 91.3142C72.3693 91.4141 72.5121 91.4569 72.6834 91.4427C72.8547 91.4284 73.0688 91.3427 73.34 91.2L73.4542 91.3998C73.1973 91.514 72.8547 91.7139 72.4122 91.9708C72.0125 92.2135 71.7127 92.399 71.4986 92.5561L71.3844 92.3562C71.5985 92.1992 71.7555 92.0565 71.8412 91.9423Z" fill="#292F36"/>
<path d="M63.9902 93.8123C64.0901 94.2549 64.2186 94.7402 64.3899 95.2541C63.7475 95.3683 62.6769 95.5967 61.1638 95.9107C59.6507 96.239 58.5944 96.4817 57.9663 96.6387C57.8949 96.082 57.8236 95.5967 57.7237 95.1542C57.638 94.7687 57.5666 94.4547 57.481 94.2263L57.7379 94.1692C57.9235 94.7545 58.0948 95.1684 58.2518 95.4396C58.4088 95.7109 58.6087 95.8822 58.8656 95.9678C59.1226 96.0534 59.4937 96.0392 59.9648 95.9392L60.5786 95.8108L59.1797 89.3159C59.1083 89.0018 59.0369 88.7734 58.937 88.645C58.8371 88.5165 58.7229 88.4308 58.5516 88.4166C58.3803 88.388 58.1233 88.4166 57.7808 88.4737L57.7379 88.2453C58.1376 88.1882 58.7086 88.074 59.4223 87.917C60.1789 87.7457 60.7499 87.6172 61.1067 87.5173L61.1495 87.7457C60.807 87.8313 60.5786 87.917 60.4358 88.0026C60.2931 88.0883 60.2074 88.2167 60.1789 88.3737C60.1503 88.5308 60.1646 88.7734 60.236 89.0875L61.6349 95.5824L62.2487 95.4539C62.7197 95.354 63.0623 95.2112 63.2622 95.0257C63.462 94.8401 63.5762 94.5974 63.6048 94.2977C63.6333 93.9979 63.619 93.5411 63.5477 92.9416L63.8046 92.8845C63.8474 93.1129 63.9045 93.4269 63.9902 93.8123Z" fill="#292F36"/>
<path d="M45.0479 89.8011C45.0907 89.3586 45.105 88.859 45.105 88.3022C45.6331 88.3736 46.5182 88.4593 47.7743 88.5735C49.2589 88.7019 50.3865 88.8019 51.1574 88.8447L51.1431 89.0731C50.8576 89.0588 50.6578 89.0731 50.5293 89.1159C50.4008 89.1587 50.3009 89.2301 50.2438 89.3586C50.1867 89.487 50.1439 89.7012 50.1153 89.9866L49.6014 95.7678C49.5729 96.0533 49.5872 96.2674 49.6157 96.4102C49.6443 96.5529 49.7299 96.6528 49.8584 96.7099C49.9869 96.767 50.1867 96.8241 50.4579 96.8527L50.4436 97.0811C49.6871 96.9954 48.5594 96.8812 47.0749 96.7528C45.9329 96.6528 45.1192 96.5958 44.6339 96.5672C44.7338 96.0676 44.8052 95.6108 44.8338 95.1968C44.8623 94.8971 44.8766 94.6544 44.8623 94.4688L45.1335 94.4974C45.1478 95.0113 45.1763 95.3824 45.2477 95.6394C45.3048 95.8963 45.4333 96.0819 45.6331 96.2103C45.8187 96.3388 46.1327 96.4245 46.5324 96.453L47.5031 96.5386C47.7886 96.5672 47.9884 96.5529 48.1169 96.5244C48.2454 96.4958 48.3453 96.4102 48.4024 96.2817C48.4595 96.1532 48.5023 95.9391 48.5309 95.6536L48.7735 92.9129L48.0027 92.8415C47.6173 92.813 47.3461 92.8986 47.1891 93.127C47.0463 93.3554 46.9321 93.5838 46.8893 93.8265C46.8322 94.0692 46.8036 94.2262 46.7894 94.2975L46.5181 94.269C46.5752 93.8836 46.6181 93.5267 46.6609 93.1699L46.7037 92.6132C46.7323 92.2135 46.7608 91.671 46.7894 90.9573L47.0606 90.9859C47.0606 91.043 47.0749 91.2285 47.0749 91.5568C47.0891 91.8852 47.1605 92.1421 47.3318 92.3134C47.4888 92.499 47.7315 92.5989 48.0455 92.6274L48.8164 92.6988L49.059 89.901C49.0876 89.6155 49.0733 89.4014 49.0447 89.2586C49.0162 89.1302 48.9305 89.0302 48.8021 88.9732C48.6736 88.9161 48.4738 88.8732 48.2025 88.8447L47.3461 88.7733C46.8607 88.7305 46.4896 88.759 46.2184 88.8732C45.9614 88.9731 45.7616 89.173 45.6189 89.4442C45.4761 89.7154 45.3619 90.1294 45.2477 90.6718L44.9765 90.6433C44.9765 90.4292 45.0051 90.1437 45.0479 89.8011Z" fill="#292F36"/>
<path d="M33.8138 84.5053C34.0279 84.4624 34.2706 84.5053 34.5275 84.6195C34.8273 84.7479 35.0271 84.9335 35.1413 85.1762C35.2555 85.4331 35.2698 85.79 35.1984 86.261L34.9843 87.4316C34.913 87.8455 34.8701 88.1596 34.8559 88.4022C34.8416 88.6306 34.8987 88.8447 34.9986 89.0303C35.0985 89.2159 35.2841 89.3586 35.5553 89.4728L36.5831 89.901L37.6251 87.4173C37.7393 87.1461 37.7964 86.9462 37.8107 86.8035C37.825 86.6607 37.7679 86.5465 37.6679 86.4466C37.568 86.3467 37.3967 86.2468 37.1398 86.1326L37.2254 85.9184C37.5537 86.0755 37.9963 86.2753 38.5815 86.518C39.1953 86.7749 39.6664 86.9605 39.9804 87.0604L39.8948 87.2745C39.6235 87.1746 39.4237 87.1318 39.2952 87.1175C39.1525 87.1175 39.0383 87.1603 38.9526 87.2745C38.8527 87.3745 38.7528 87.56 38.6386 87.8312L36.3975 93.1842C36.2833 93.4554 36.2262 93.6552 36.2119 93.798C36.1977 93.9407 36.2548 94.0549 36.3547 94.1549C36.4546 94.2548 36.6259 94.3547 36.8828 94.4832L36.7972 94.6973C36.4974 94.5545 36.0692 94.3547 35.4982 94.112C35.2127 93.9978 34.913 93.8694 34.5704 93.7266C34.2278 93.5839 33.9994 93.4982 33.8709 93.4411C33.3142 93.1985 32.8717 92.9273 32.5434 92.5989C32.2151 92.2706 32.0295 91.928 31.9438 91.5569C31.8582 91.1858 31.901 90.8289 32.058 90.472C32.1722 90.1865 32.3578 89.9296 32.6148 89.7012C32.8717 89.4728 33.2 89.3015 33.5997 89.2159C33.9994 89.1302 34.4847 89.1445 35.0129 89.273L34.8844 89.2016C34.5846 89.016 34.3562 88.8305 34.2135 88.6306C34.0708 88.445 33.9708 88.2309 33.9423 88.0025C33.8995 87.7741 33.9137 87.4886 33.9708 87.1461L34.1707 85.9327C34.2135 85.6901 34.2421 85.5045 34.2421 85.3617C34.2421 85.219 34.2278 85.1048 34.185 85.0192C34.1421 84.9335 34.0708 84.8621 33.9708 84.8336C33.8566 84.7765 33.7424 84.7765 33.6425 84.805C33.5426 84.8336 33.3999 84.905 33.2143 85.0049L33.1001 84.8193C33.357 84.6623 33.5997 84.5481 33.8138 84.5053ZM34.5275 89.587C34.185 89.6298 33.9137 89.7583 33.6996 89.9724C33.4855 90.1865 33.2999 90.472 33.1429 90.8432C32.9002 91.4284 32.8431 91.9423 33.0002 92.3563C33.1572 92.7702 33.5426 93.1128 34.185 93.384C34.4133 93.484 34.5846 93.5268 34.7274 93.5125C34.8559 93.5125 34.9701 93.4554 35.07 93.3412C35.1699 93.227 35.2698 93.0414 35.3697 92.7845L36.4832 90.1294L35.7552 89.8297C35.2841 89.6298 34.8701 89.5442 34.5275 89.587Z" fill="#292F36"/>
<path d="M22.6797 86.4466C22.8082 86.4894 22.9366 86.4609 23.0508 86.3895C23.165 86.3181 23.322 86.1611 23.5076 85.9327L27.0905 81.3649C27.2761 81.1365 27.3903 80.9509 27.4331 80.8225C27.4759 80.694 27.4617 80.5655 27.3903 80.4513C27.3189 80.3371 27.1762 80.1801 26.962 79.9945L27.1048 79.809C27.376 80.0516 27.7471 80.3657 28.2468 80.7511C28.7749 81.165 29.1746 81.4648 29.4458 81.6504L29.3031 81.8359C29.0747 81.6647 28.8891 81.5647 28.7606 81.5362C28.6322 81.4934 28.5037 81.5076 28.3895 81.5933C28.2753 81.6646 28.1183 81.8217 27.9327 82.0501L24.3498 86.6179C24.1642 86.8463 24.05 87.0319 24.0072 87.1603C23.9644 87.2888 23.9787 87.4173 24.05 87.5315C24.1214 87.6457 24.2642 87.8027 24.4783 87.9883L24.3355 88.1738C24.0929 87.9597 23.7075 87.6457 23.1793 87.2174C22.6797 86.832 22.28 86.5323 21.9945 86.3324L22.1373 86.1469C22.3799 86.3039 22.5512 86.4038 22.6797 86.4466Z" fill="#292F36"/>
<path d="M13.4583 76.2832C13.4012 75.6408 13.544 74.9985 13.8723 74.3847C14.2149 73.7566 14.7288 73.1999 15.4425 72.6717C16.1419 72.1721 16.8414 71.8438 17.5694 71.7153C18.2974 71.5869 18.9683 71.6297 19.5964 71.8723C20.2245 72.115 20.7526 72.529 21.1666 73.1142C21.6091 73.7138 21.8517 74.3418 21.9088 74.9842C21.9659 75.6265 21.8232 76.2689 21.4949 76.8827C21.1523 77.5108 20.6384 78.0675 19.9247 78.5957C19.2252 79.0953 18.5258 79.4236 17.7978 79.552C17.0841 79.6805 16.3989 79.6377 15.7708 79.395C15.1427 79.1524 14.6146 78.7384 14.2006 78.1674C13.7581 77.5536 13.5154 76.9255 13.4583 76.2832ZM15.5995 78.824C16.0991 78.924 16.6701 78.8811 17.2982 78.6813C17.9263 78.4815 18.5543 78.1531 19.211 77.6678C19.8676 77.1967 20.3815 76.6829 20.7383 76.1404C21.1095 75.598 21.3093 75.0556 21.3379 74.5417C21.3807 74.0278 21.2522 73.571 20.981 73.1856C20.6812 72.7859 20.2958 72.529 19.7819 72.4291C19.2823 72.3291 18.7114 72.372 18.0833 72.5718C17.4552 72.7716 16.8271 73.1 16.1705 73.571C15.5139 74.0421 15 74.556 14.6431 75.1127C14.272 75.6551 14.0721 76.1833 14.0293 76.7114C13.9865 77.2253 14.115 77.6821 14.3862 78.0675C14.6859 78.4672 15.0856 78.7241 15.5995 78.824Z" fill="#292F36"/>
<path d="M14.5575 59.0966C14.7288 59.2251 14.8572 59.4392 14.9429 59.7247C15.0428 60.0245 15.0285 60.31 14.9143 60.5526C14.8001 60.8096 14.5289 61.0522 14.115 61.2949L13.0729 61.8801C12.716 62.0943 12.4448 62.2656 12.2593 62.4083C12.0737 62.5511 11.9452 62.7224 11.8739 62.9222C11.8025 63.122 11.8025 63.3504 11.8881 63.6359L12.2164 64.7065L14.7859 63.9071C15.0713 63.8215 15.2569 63.7358 15.3711 63.6502C15.4853 63.5645 15.5424 63.4504 15.5567 63.3219C15.571 63.1934 15.5281 62.9793 15.4568 62.7081L15.6852 62.6367C15.7708 62.9793 15.8993 63.4646 16.0991 64.0642C16.299 64.7065 16.456 65.1776 16.5702 65.4773L16.3418 65.5487C16.2419 65.2775 16.1562 65.0919 16.0706 64.992C15.9849 64.8921 15.8707 64.8207 15.728 64.8207C15.5852 64.8207 15.3711 64.8493 15.0999 64.9492L9.56138 66.6621C9.27589 66.7478 9.09032 66.8334 8.97612 66.9191C8.86192 67.0047 8.80483 67.1189 8.79055 67.2474C8.77628 67.3901 8.8191 67.59 8.89047 67.8612L8.66208 67.9326C8.59071 67.6185 8.46224 67.1617 8.27667 66.5622C8.19102 66.2767 8.07683 65.9484 7.96263 65.6058C7.84843 65.2632 7.76279 65.0205 7.71996 64.8921C7.53439 64.3068 7.47729 63.7929 7.52012 63.3362C7.56294 62.8794 7.70569 62.5082 7.93408 62.2085C8.16247 61.9087 8.46224 61.7089 8.83337 61.5947C9.11887 61.509 9.43291 61.4805 9.77549 61.5233C10.1181 61.5661 10.4464 61.7089 10.789 61.9658C11.1316 62.2227 11.4171 62.5939 11.6597 63.0935L11.6455 62.9507C11.6026 62.5939 11.5884 62.3084 11.6455 62.0657C11.7026 61.8231 11.8025 61.6232 11.9452 61.4519C12.1022 61.2806 12.3306 61.0951 12.6304 60.9238L13.6867 60.2957C13.9008 60.1815 14.0721 60.0673 14.1721 59.9816C14.272 59.896 14.3576 59.8103 14.4004 59.7247C14.4433 59.639 14.4433 59.5391 14.4147 59.4392C14.3719 59.3107 14.3148 59.2251 14.2292 59.168C14.1435 59.1109 14.0008 59.0395 13.8009 58.9681L13.8723 58.754C14.1578 58.854 14.4004 58.9681 14.5575 59.0966ZM11.1458 62.9222C10.9032 62.6938 10.6177 62.5653 10.3179 62.5368C10.0182 62.5082 9.67557 62.5511 9.29016 62.6795C8.67636 62.8651 8.26239 63.1649 8.034 63.5503C7.80561 63.9357 7.80561 64.4638 8.00545 65.1062C8.07682 65.3346 8.16247 65.5059 8.24812 65.6058C8.33377 65.7057 8.46224 65.7628 8.60498 65.7628C8.74773 65.7628 8.96185 65.72 9.21879 65.6486L11.9595 64.7922L11.7311 64.0356C11.5884 63.5217 11.3885 63.1506 11.1458 62.9222Z" fill="#292F36"/>
<path d="M13.4583 45.5501C14.0008 45.3074 14.3291 44.8506 14.4718 44.1655C14.5146 43.9085 14.5146 43.6516 14.4433 43.4089C14.3719 43.1662 14.2434 42.9521 14.0436 42.7666C13.8437 42.581 13.5725 42.4525 13.2157 42.3954C12.9159 42.3383 12.6447 42.3669 12.3877 42.4668C12.1308 42.5667 11.8738 42.7237 11.6312 42.9379C11.3885 43.152 11.103 43.4375 10.789 43.7943C10.4321 44.194 10.1181 44.5223 9.84686 44.7507C9.57565 44.9934 9.27588 45.1647 8.94757 45.2932C8.61926 45.4216 8.24812 45.4359 7.83416 45.3645C7.40592 45.2789 7.04906 45.1219 6.79211 44.8649C6.53517 44.608 6.3496 44.3082 6.26396 43.9513C6.17831 43.5945 6.17831 43.2233 6.24968 42.8237C6.29251 42.581 6.3496 42.3954 6.42098 42.2241C6.49235 42.0528 6.56372 41.9244 6.64937 41.8244C6.73502 41.7245 6.82066 41.6103 6.93486 41.4961C7.0776 41.3391 7.14898 41.2249 7.17753 41.1393C7.1918 41.0679 7.16325 41.0108 7.09188 40.9537C7.02051 40.8966 6.89204 40.8538 6.72074 40.7967L6.76357 40.5397C7.20608 40.6539 7.9769 40.8252 9.10459 41.0393L9.06177 41.2963C8.66208 41.2535 8.29094 41.2677 7.9198 41.3534C7.56294 41.4248 7.2489 41.5818 6.99196 41.8244C6.73502 42.0528 6.56372 42.3811 6.49235 42.7808C6.43525 43.0521 6.44953 43.2947 6.5209 43.5374C6.59227 43.7801 6.72074 43.9656 6.89204 44.1226C7.07761 44.2797 7.29172 44.3796 7.54866 44.4367C7.96263 44.5081 8.31949 44.451 8.61926 44.2511C8.91902 44.0513 9.20451 43.7943 9.47573 43.4946C9.74694 43.1948 9.91824 42.995 10.0182 42.895C10.4178 42.4668 10.7462 42.1385 11.0174 41.8958C11.2886 41.6531 11.5884 41.4819 11.9167 41.3677C12.245 41.2535 12.6019 41.2392 12.9873 41.3106C13.4583 41.3962 13.8437 41.5818 14.1292 41.853C14.4147 42.1385 14.6003 42.4668 14.7002 42.8665C14.8001 43.2662 14.8001 43.6944 14.7145 44.1512C14.6431 44.5223 14.5575 44.8078 14.429 45.0362C14.3148 45.2646 14.1578 45.4644 13.9865 45.65C13.8437 45.807 13.7724 45.9212 13.7438 46.0069C13.7295 46.0783 13.7581 46.1354 13.8295 46.1925C13.9008 46.2495 14.0293 46.3066 14.2006 46.3495L14.1578 46.6064C13.7438 46.4922 12.8302 46.3066 11.4171 46.0497L11.4599 45.7928C12.2593 45.8641 12.9159 45.7928 13.4583 45.5501Z" fill="#292F36"/>
<path d="M10.632 33.5165C10.2323 33.3024 9.77551 33.1026 9.26163 32.9027C9.57567 32.346 10.1038 31.3754 10.8176 29.9907C11.5313 28.6204 12.0309 27.6497 12.3021 27.0645C12.7732 27.3642 13.2014 27.6212 13.5868 27.821C13.9294 28.0066 14.2292 28.135 14.4576 28.235L14.3291 28.4776C13.7581 28.2492 13.3299 28.1065 13.0301 28.0637C12.7303 28.0066 12.4591 28.0637 12.2307 28.2064C12.0023 28.3492 11.7739 28.6347 11.5598 29.0629L11.2743 29.6339L17.1697 32.7029C17.4552 32.8599 17.6836 32.9313 17.8406 32.9456C17.9976 32.9598 18.1404 32.917 18.2689 32.8028C18.3973 32.6886 18.5401 32.4745 18.7114 32.1747L18.9255 32.2889C18.7114 32.6458 18.4402 33.1454 18.0976 33.802C17.7407 34.4872 17.4838 35.0154 17.3267 35.3437L17.1126 35.2295C17.2554 34.9154 17.3553 34.6728 17.3696 34.5158C17.3981 34.3445 17.3553 34.2017 17.2411 34.0733C17.1269 33.9448 16.9413 33.8163 16.6558 33.6593L10.7605 30.576L10.4607 31.1327C10.2323 31.5609 10.1324 31.9035 10.1466 32.1747C10.1609 32.446 10.2751 32.6886 10.4892 32.9027C10.7034 33.1169 11.0602 33.4023 11.5741 33.7307L11.4456 33.9733C11.2601 33.8591 10.9746 33.7021 10.632 33.5165Z" fill="#292F36"/>
<path d="M20.7098 17.1153C20.9525 16.8726 21.1523 16.6442 21.2951 16.4729L21.4663 16.6442C21.3807 16.7727 21.3379 16.9582 21.3522 17.1724C21.3664 17.3865 21.4235 17.6862 21.5377 18.0431L22.8367 21.9115L24.3498 23.4103C24.5639 23.6102 24.7209 23.7529 24.8494 23.81C24.9779 23.8671 25.1064 23.8671 25.2348 23.81C25.3633 23.7529 25.5203 23.6244 25.7344 23.4389L25.9057 23.6102C25.6345 23.8528 25.2777 24.1954 24.8351 24.6379C24.3641 25.109 24.0215 25.4801 23.8074 25.7228L23.6361 25.5515C23.8216 25.3374 23.9501 25.1804 24.0072 25.0519C24.0643 24.9234 24.0643 24.795 23.9929 24.6665C23.9358 24.538 23.7931 24.3667 23.5933 24.1669L22.3371 22.925L17.5694 21.5261C17.2839 21.4404 17.0698 21.4119 16.927 21.4262C16.7843 21.4404 16.6844 21.4833 16.613 21.5546L16.4417 21.3833C16.6701 21.1835 16.927 20.9551 17.184 20.6839C17.7121 20.1415 18.0976 19.756 18.3117 19.4991L18.483 19.6704C18.0976 20.0558 18.0119 20.3556 18.226 20.5697C18.3117 20.6553 18.4259 20.7124 18.5972 20.7695L22.6083 22.0114L21.552 18.8567C21.395 18.4 21.238 18.0859 21.0667 17.9289C20.9096 17.7719 20.7383 17.7291 20.5528 17.7862C20.3672 17.8433 20.1531 17.986 19.8961 18.2287L19.7249 18.0574C20.0674 17.7433 20.3815 17.4293 20.7098 17.1153Z" fill="#292F36"/>
<path d="M29.3459 11.3626C29.2603 11.4625 29.2174 11.591 29.246 11.7337C29.2745 11.8765 29.3459 12.0763 29.4887 12.3333L32.2436 17.4436C32.3864 17.7005 32.5006 17.8718 32.6148 17.9717C32.7147 18.0716 32.8432 18.1002 32.9716 18.0859C33.1001 18.0716 33.3 17.986 33.5426 17.8575L34.2992 17.4436C34.7274 17.2152 35.0272 16.9725 35.1842 16.7298C35.3412 16.4872 35.3983 16.2159 35.3555 15.8876C35.3127 15.5593 35.1842 15.1454 34.9558 14.6029L35.1985 14.4745C35.2984 14.7028 35.4411 14.9883 35.6267 15.3309C35.8408 15.7163 36.0978 16.1446 36.4118 16.6156C35.9407 16.844 35.1414 17.258 34.0422 17.8575C32.729 18.5712 31.7298 19.1137 31.0731 19.4991L30.9589 19.2992C31.2016 19.1565 31.3729 19.028 31.4585 18.9281C31.5442 18.8282 31.587 18.6997 31.5585 18.557C31.5299 18.4142 31.4585 18.2144 31.3158 17.9574L28.5323 12.8472C28.3895 12.5902 28.2753 12.4189 28.1611 12.319C28.0612 12.2191 27.9327 12.1905 27.8043 12.2048C27.6615 12.2191 27.4759 12.2905 27.219 12.4189L27.1191 12.2048C27.4188 12.0763 27.8614 11.8479 28.4466 11.5196C29.0033 11.2199 29.4316 10.9772 29.7313 10.7916L29.8455 10.9915C29.6028 11.1342 29.4458 11.2627 29.3459 11.3626Z" fill="#292F36"/>
<path d="M46.7323 12.276C46.8179 12.7043 46.9464 13.1896 47.1034 13.732C46.5753 13.8177 45.7045 13.9747 44.4769 14.2174C43.0066 14.5029 41.9075 14.7313 41.1509 14.9026L41.1081 14.6742C41.3793 14.6028 41.5792 14.5457 41.6934 14.46C41.8076 14.3887 41.8789 14.2745 41.8932 14.146C41.9075 14.0033 41.8932 13.7891 41.8361 13.5037L40.7227 7.80811C40.6656 7.52262 40.6085 7.32278 40.5229 7.19431C40.4372 7.06584 40.3516 6.99446 40.2088 6.98019C40.0803 6.95164 39.8662 6.96591 39.595 7.00874L39.5522 6.78034C40.3087 6.65187 41.4221 6.45203 42.8782 6.16654C44.0058 5.93815 44.8052 5.78113 45.262 5.66693C45.3048 6.18081 45.3762 6.6376 45.4476 7.03729C45.5047 7.33705 45.5618 7.56544 45.6189 7.73674L45.3619 7.79384C45.2049 7.3085 45.0622 6.95164 44.9337 6.72325C44.8052 6.49485 44.6196 6.35211 44.4055 6.28074C44.1771 6.20936 43.8774 6.20936 43.4634 6.29501L42.507 6.48058C42.2358 6.53768 42.036 6.59478 41.9218 6.66615C41.8076 6.73752 41.7362 6.83744 41.7076 6.98019C41.6934 7.12293 41.7076 7.33705 41.7647 7.62254L42.2929 10.3347L43.0494 10.1777C43.4349 10.1063 43.6633 9.93502 43.7489 9.67808C43.8345 9.42113 43.8631 9.17847 43.8488 8.9358C43.8345 8.69313 43.8203 8.53611 43.8203 8.46474L44.0772 8.40764C44.12 8.79305 44.1771 9.14992 44.2485 9.49251L44.3627 10.0349C44.4341 10.4204 44.5625 10.9628 44.7481 11.648L44.4912 11.7051C44.4769 11.648 44.4198 11.4767 44.3199 11.1626C44.22 10.8486 44.0772 10.6345 43.8631 10.506C43.649 10.3775 43.4063 10.349 43.0923 10.4061L42.3357 10.5488L42.8782 13.3038C42.9352 13.5893 42.9923 13.7891 43.0637 13.9176C43.1351 14.0318 43.235 14.1032 43.3778 14.1317C43.5062 14.146 43.7204 14.1317 43.9916 14.0746L44.8338 13.9033C45.3048 13.8034 45.6617 13.6749 45.8901 13.5037C46.1185 13.3324 46.2469 13.0897 46.304 12.7899C46.3611 12.4902 46.3611 12.0619 46.3183 11.5052L46.5753 11.4481C46.6181 11.6622 46.6609 11.9335 46.7323 12.276Z" fill="#292F36"/>
<path d="M37.1112 66.7905C36.4546 65.9055 35.8836 64.9348 35.384 63.8642C34.8844 62.7936 34.4847 61.7088 34.1849 60.5954C33.5283 55.6992 33.514 50.9458 34.1278 46.3351C34.7416 41.7244 35.7408 37.1851 37.1112 32.7029C37.3396 32.2033 37.8392 31.9606 38.61 31.9606C39.3808 31.9606 40.1374 32.1319 40.9082 32.4745C41.679 32.8171 42.3071 33.2739 42.8067 33.8449C43.3063 34.4159 43.4205 35.0154 43.1493 35.6292C42.7211 36.5428 42.3071 37.7847 41.8932 39.3263C41.4792 40.8822 41.0652 42.5952 40.6941 44.4651C40.3087 46.3351 39.9804 48.305 39.6949 50.3463C39.4094 52.3875 39.1953 54.3574 39.0668 56.2274C38.9383 58.0973 38.9098 59.796 38.9811 61.3091C39.0525 62.8222 39.2809 64.0213 39.6663 64.892C41.4649 62.4796 43.1065 59.9816 44.6053 57.3979C46.1041 54.8142 47.503 52.2019 48.8163 49.5326C50.1296 46.8775 51.3857 44.1939 52.5705 41.4675C53.7553 38.7553 54.9258 36.0717 56.0678 33.4309C56.6388 32.0891 57.2097 30.6759 57.7664 29.1914C58.3231 27.6926 59.0511 26.4221 59.979 25.3515C60.3644 25.0089 60.6642 24.8948 60.864 25.0089C61.0781 25.1231 61.2209 25.3373 61.2922 25.6656C61.3636 25.9939 61.4064 26.3365 61.4064 26.6933C61.4064 27.0502 61.4064 27.3357 61.4064 27.5213C61.1352 29.277 60.9068 31.0185 60.7213 32.7457C60.5357 34.473 60.1217 36.1288 59.5222 37.7418C58.523 40.2684 57.5095 42.7665 56.4532 45.2645C55.3969 47.7483 54.2692 50.2035 53.0701 52.6159C51.8711 55.0283 50.5578 57.3693 49.1732 59.639C47.7743 61.9229 46.2612 64.0926 44.6053 66.1482C43.3063 67.7897 42.0073 68.6605 40.7369 68.7604C39.4094 68.8746 38.2246 68.2037 37.1112 66.7905Z" fill="#292F36" stroke="white" stroke-miterlimit="10"/>
<path d="M60.7498 60.3099C59.979 59.2393 59.2224 58.1544 58.4802 57.041C57.7379 55.9276 57.3668 54.7142 57.3668 53.3724C57.3668 51.8879 57.795 50.4747 58.6515 49.1472C59.5079 47.8339 60.4929 46.7633 61.6063 45.964C62.0631 45.6642 62.5341 45.4073 63.0052 45.2217C63.4763 45.0361 63.9901 45.0504 64.5326 45.2788C64.761 45.393 65.0036 45.4786 65.2463 45.5357C65.489 45.5928 65.7174 45.6642 65.9029 45.7356C66.0885 45.8069 66.3026 45.9211 66.531 46.0782C66.7594 46.2352 66.8736 46.435 66.8736 46.7062C66.8736 47.7768 66.9021 48.6476 66.9592 49.3185C67.0163 49.9894 67.102 50.5604 67.2162 51.0457C67.3304 51.531 67.4446 51.945 67.5588 52.3019C67.673 52.673 67.7872 53.0584 67.9014 53.4724C67.9727 53.8578 67.9585 54.1861 67.8443 54.443C67.7301 54.7142 67.4446 54.7428 66.9878 54.5572C66.1456 54.2575 65.5175 53.6437 65.1178 52.7158C64.7181 51.788 64.4184 50.96 64.2328 50.1892C64.19 50.0322 64.1043 49.7753 63.9473 49.3898C63.7903 49.0044 63.7046 48.7332 63.6618 48.5905C63.3621 48.5191 62.9909 48.619 62.577 48.9045C62.163 49.19 61.7776 49.5897 61.4635 50.075C61.1352 50.5746 60.9211 51.1456 60.8355 51.8022C60.7355 52.4589 60.864 53.1012 61.2066 53.7579C61.3636 53.9862 61.5777 54.2717 61.8632 54.5858C62.1487 54.9141 62.4342 55.2424 62.7197 55.585C63.0052 55.9276 63.2907 56.2702 63.5762 56.5842C63.8617 56.8983 64.1043 57.1695 64.2899 57.355C64.5183 57.5834 64.6753 57.7119 64.7467 57.7262C64.8181 57.7404 65.0179 57.6976 65.3177 57.5834C65.7031 57.3979 66.2883 57.1409 67.0734 56.8412C67.8585 56.5414 68.6865 56.2274 69.5429 55.9276C70.3994 55.6278 71.2273 55.3709 72.0124 55.1568C72.7975 54.9426 73.3971 54.8427 73.8253 54.8427C74.0965 54.8427 74.2821 54.9426 74.3963 55.1282C74.5105 55.2424 74.4962 55.3994 74.3392 55.585C74.1822 55.7706 73.9823 55.9704 73.7396 56.156C73.497 56.3415 73.2258 56.5128 72.9688 56.6699C72.6976 56.8269 72.5263 56.9125 72.4549 56.9554C71.7983 57.3408 70.9847 57.769 69.9854 58.2543C68.9862 58.7254 68.1298 59.1965 67.4018 59.6532C67.3304 59.7246 67.1876 59.8103 66.9735 59.8816C66.7594 59.953 66.6024 60.0387 66.4882 60.11C66.945 61.1378 67.2733 62.0371 67.4589 62.7794C67.6444 63.5216 67.7158 64.2354 67.6587 64.9348C67.6016 65.62 67.4589 66.3194 67.2305 67.0332C67.0021 67.7469 66.688 68.5605 66.3169 69.4741C65.7745 70.3591 65.232 71.2013 64.6753 72.0007C64.1186 72.8001 63.5048 73.5281 62.8054 74.1847C62.1202 74.8413 61.3636 75.3552 60.5642 75.7264C59.7649 76.1118 58.8799 76.2973 57.9235 76.2973C57.381 76.2973 56.8671 76.226 56.3675 76.0975C55.8679 75.969 55.454 75.6835 55.1114 75.2696C54.2264 74.3132 53.741 73.2711 53.6268 72.1435C53.5126 71.0158 53.6126 69.9024 53.9123 68.7889C54.1407 68.1038 54.4262 67.4757 54.7688 66.8904C55.611 65.4344 56.5388 64.2068 57.5523 63.1933C58.5801 62.1941 59.6364 61.2234 60.7498 60.3099ZM62.7054 62.8936C62.2772 63.3218 61.7062 63.9213 60.9782 64.7064C60.2502 65.4915 59.5793 66.348 58.937 67.2616C58.3089 68.1751 57.795 69.0887 57.3953 69.988C56.9956 70.8873 56.8957 71.6581 57.0813 72.3148C57.8521 71.9722 58.6372 71.4012 59.4366 70.6161C60.2359 69.831 60.9497 68.9745 61.5635 68.0324C62.1773 67.0903 62.6055 66.1624 62.8482 65.2489C63.0908 64.321 63.048 63.5359 62.7054 62.8936Z" fill="#292F36" stroke="white" stroke-miterlimit="10"/>
<path d="M51.4428 83.5489C33.5854 83.5489 19.0539 69.0174 19.0539 51.16C19.0539 33.3025 33.5854 18.7711 51.4428 18.7711C69.3003 18.7711 83.8317 33.3025 83.8317 51.16C83.8317 69.0174 69.3003 83.5489 51.4428 83.5489ZM51.4428 20.1985C34.3705 20.1985 20.4813 34.0876 20.4813 51.16C20.4813 68.2323 34.3705 82.1214 51.4428 82.1214C68.5152 82.1214 82.4043 68.2323 82.4043 51.16C82.4043 34.0876 68.5152 20.1985 51.4428 20.1985Z" fill="#292F36"/>
</svg>
