<svg width="146" height="45" viewBox="0 0 146 45" fill="none" xmlns="http://www.w3.org/2000/svg">
<path d="M21.2235 8.95747L22.2941 8.72908C22.5653 8.72908 22.7937 8.78618 22.9507 8.90038C23.1078 9.01457 23.1934 9.12877 23.1934 9.22869C23.1934 9.32861 23.1649 9.48563 23.122 9.6712C23.0792 9.85677 22.6795 11.7696 21.9372 15.381C21.195 18.9925 20.6525 21.6904 20.3099 23.4604C21.9658 21.205 23.9071 18.4358 26.1197 15.1383C28.3322 11.8409 29.6312 9.65693 30.0024 8.57206C30.1166 8.22947 30.2736 7.97253 30.4591 7.78696C30.6447 7.60139 30.816 7.4872 30.9588 7.45865C31.1015 7.4301 31.3299 7.40155 31.6297 7.40155C31.9294 7.40155 32.2863 7.47292 32.7003 7.6014C33.1142 7.72987 33.3283 7.94398 33.3283 8.25802C33.3283 8.829 32.4719 10.4991 30.7732 13.2398C29.0745 15.9805 27.1189 18.8925 24.9206 21.9758C22.7224 25.0591 20.8952 27.5001 19.4249 29.2987C19.168 29.6127 18.8397 29.784 18.4685 29.784C18.0974 29.784 17.6977 29.7127 17.2837 29.5842C16.8698 29.4557 16.6557 29.2273 16.6557 28.8847C16.6557 27.8141 17.5978 22.6468 19.482 13.4111C17.869 15.4952 15.9134 18.4072 13.6152 22.1329C11.2171 25.987 9.86099 28.3851 9.54695 29.2987C9.37566 29.8554 9.17582 30.1837 8.94743 30.2694C8.79041 30.3407 8.6191 30.3693 8.44781 30.3693L7.29158 30.4977C7.06318 30.4977 6.86334 30.4406 6.66349 30.3122C6.47792 30.1837 6.37801 30.0552 6.37801 29.9125C6.37801 29.5271 6.92045 28.3566 7.99104 26.4152C9.06163 24.4739 10.3321 22.3613 11.7738 20.0773C13.2155 17.7934 14.7143 15.5809 16.2845 13.4254C17.8547 11.27 19.0681 9.81395 19.9245 9.08595C20.0958 8.92893 20.2957 8.85755 20.5241 8.85755L21.2235 8.95747Z" fill="#292F36"/>
<path d="M38.3815 18.6357C39.1238 18.6357 39.4949 18.8927 39.4949 19.3923C39.4949 19.6635 39.4378 19.8633 39.3094 19.9918C39.1809 20.1203 38.9097 20.5342 38.4957 21.2622C38.0818 21.976 37.625 22.8895 37.1253 24.0172C36.6257 25.1306 36.2974 26.087 36.1547 26.8721C36.1261 26.9721 36.1119 27.1005 36.1119 27.2861C36.1119 27.8285 36.2546 28.0855 36.5544 28.0855C36.8541 28.0855 37.1967 27.9427 37.5964 27.6715C37.9961 27.386 38.353 27.1005 38.667 26.7722C38.981 26.4582 39.2808 26.1299 39.5806 25.8015C39.8803 25.4732 40.0516 25.2734 40.1087 25.2306C40.1658 25.1877 40.2515 25.1592 40.3657 25.1592C40.5512 25.1592 40.6654 25.3019 40.7083 25.5874C40.7511 25.8729 40.7654 26.1584 40.7654 26.4724C40.7654 26.7865 40.7368 26.9863 40.6797 27.1005C40.3942 27.6572 39.7804 28.3281 38.8098 29.1132C37.8534 29.8983 36.9683 30.2837 36.1832 30.2837C35.3981 30.2837 34.8129 30.0411 34.456 29.57C34.0992 29.099 33.8993 28.5565 33.8993 27.9855C33.8993 27.4003 33.9992 26.9007 34.1991 26.4582C33.3854 27.5145 32.4576 28.3995 31.4155 29.1418C30.3592 29.8698 29.517 30.2409 28.8461 30.2409C28.1752 30.2409 27.6471 30.0411 27.2188 29.6414C26.6764 29.1418 26.4194 28.4566 26.4194 27.5716C26.4194 26.6866 26.6193 25.8015 27.019 24.9022C27.4187 24.0172 27.9326 23.1893 28.5749 22.4613C29.2173 21.719 29.931 21.0481 30.7018 20.4486C32.3148 19.1782 33.8137 18.5501 35.184 18.5501C35.7122 18.5501 36.1404 18.6357 36.4687 18.807C36.797 18.9783 37.0112 19.2067 37.0968 19.4636C37.3252 19.1068 37.5251 18.8927 37.6963 18.7927C37.8248 18.6785 38.0675 18.6357 38.3815 18.6357ZM36.4402 20.263C34.7701 20.263 33.0428 21.1909 31.2585 23.0466C30.6304 23.7175 30.0452 24.5026 29.5028 25.4304C28.9603 26.3582 28.7034 26.9863 28.7034 27.3289C28.7034 27.6715 28.8033 27.8428 29.0032 27.8428C29.2744 27.8428 30.0309 27.3004 31.2871 26.2298C32.5432 25.1592 33.3712 24.3598 33.7708 23.8459C34.2276 23.2749 35.1126 22.0759 36.4402 20.263Z" fill="#292F36"/>
<path d="M49.4871 10.8988L50.0866 11.0415C50.1723 11.0415 50.2579 11.0844 50.315 11.17C50.3864 11.2557 50.415 11.3413 50.415 11.4127C50.415 11.4841 50.315 11.6982 50.1009 12.0408C49.8868 12.3834 49.6584 12.7688 49.3729 13.197C49.0874 13.6252 48.9447 13.8679 48.9304 13.9107C49.687 13.8536 50.2294 13.8251 50.5434 13.8251C50.8575 13.8251 51.0716 13.8536 51.2001 13.8965C51.3142 13.9393 51.457 14.0678 51.5997 14.2676C51.7568 14.4674 51.8852 14.6245 52.0137 14.7244C52.1422 14.8243 52.1993 14.9813 52.1993 15.1812C52.1993 15.381 52.0708 15.5666 51.8281 15.695C51.5855 15.8378 51.3143 15.9234 51.0288 15.952C48.7591 16.1804 47.5172 16.2946 47.2888 16.3089C46.5037 17.5222 45.3903 19.4064 43.9771 21.9616C42.564 24.5167 41.8074 26.1297 41.7218 26.7721C41.6789 27.0719 41.6647 27.3002 41.6647 27.4858C41.6647 27.8712 41.8645 28.0568 42.2642 28.0568C42.6639 28.0568 43.1064 27.8998 43.5917 27.6C44.0771 27.286 44.5338 26.9577 44.9335 26.6008C46.0327 25.6301 46.6179 25.1305 46.6893 25.1305C46.9463 25.1305 47.0747 25.573 47.0747 26.4438C47.0747 26.9148 46.8606 27.3431 46.4181 27.7285C45.4332 28.5707 44.6052 29.213 43.9343 29.6413C43.2634 30.0695 42.5925 30.2836 41.9073 30.2836C41.7646 30.2836 41.6219 30.2693 41.4934 30.2408C40.7083 30.0981 40.1373 29.8126 39.7804 29.3843C39.4093 28.9561 39.238 28.3851 39.238 27.6714C39.238 26.9577 39.4521 26.0726 39.8804 25.0449C40.3086 24.0171 40.8367 22.918 41.4791 21.7617C42.5354 19.8632 43.5917 18.0932 44.6338 16.4373L44.0771 16.5087C42.9494 16.6372 42.2927 16.6943 42.1072 16.6943H41.9787C41.6932 16.6943 41.422 16.6372 41.1651 16.523C40.9081 16.4088 40.7654 16.266 40.7654 16.109C40.7654 15.9377 40.8368 15.7807 40.9795 15.6237C41.1222 15.4667 41.2079 15.3382 41.2364 15.2525C41.3078 15.0384 41.5647 14.7958 42.0072 14.5388C42.4498 14.2819 42.7781 14.1391 43.0065 14.1248C43.2349 14.1106 43.449 14.0963 43.6631 14.082C43.8772 14.0678 44.1056 14.0677 44.3626 14.0535C44.6195 14.0392 44.8193 14.0392 44.9621 14.0249L46.2753 13.9678C47.089 12.7402 47.66 11.9408 47.9597 11.5983C48.2738 11.2414 48.4451 11.0558 48.4879 11.0273C48.5307 10.9987 48.6306 10.9702 48.7877 10.9702L49.4871 10.8988Z" fill="#292F36"/>
<path d="M58.266 25.1592C58.4515 25.1592 58.5657 25.3019 58.6085 25.5874C58.6514 25.8729 58.6656 26.1584 58.6656 26.4725C58.6656 26.7865 58.6371 26.9863 58.58 27.1005C58.2945 27.643 57.6807 28.3139 56.7243 29.099C55.7679 29.8841 54.8543 30.2838 53.9979 30.2838C53.4697 30.2838 52.9844 30.1267 52.5276 29.8127C52.0851 29.4987 51.8567 28.942 51.8567 28.1569C51.8567 27.3718 52.0708 26.5867 52.4848 25.8301C50.0581 28.8706 48.1739 30.3837 46.7892 30.3837C46.2468 30.3837 45.8043 30.1838 45.4617 29.7984C45.1191 29.413 44.9621 29.0133 44.9621 28.5851C44.9621 28.1711 45.0192 27.7429 45.1334 27.3004C45.2476 26.8579 45.3761 26.4582 45.5045 26.1013C45.633 25.7445 45.8328 25.3162 46.0898 24.8023C46.3467 24.2885 46.5466 23.9173 46.6608 23.6747C46.775 23.432 46.9891 23.0894 47.2745 22.6183C47.56 22.1473 47.9169 21.5049 48.3737 20.7055C48.8305 19.9062 49.2016 19.3066 49.5014 18.9212C49.8011 18.5358 50.0866 18.336 50.3721 18.336C50.6576 18.336 50.9003 18.4502 51.1144 18.6786C51.3285 18.907 51.4427 19.1068 51.4427 19.2495C51.4427 19.3923 51.1144 20.0489 50.4578 21.2194C48.5307 24.7167 47.5601 26.7437 47.5601 27.3289C47.5601 27.4717 47.6171 27.543 47.7171 27.543C48.1881 27.543 49.3586 26.5296 51.2143 24.5026C53.07 22.4756 54.1549 21.1766 54.4546 20.6056C54.7544 20.0346 55.0256 19.5493 55.3111 19.1639C55.5823 18.7785 55.7965 18.5358 55.9392 18.4502C56.3532 18.179 56.8956 18.0362 57.5665 18.0077C57.6807 18.0077 57.7521 18.0077 57.8092 18.0219C57.8663 18.0362 57.9376 18.1219 58.009 18.2646C58.0804 18.4073 58.1232 18.5358 58.1232 18.6357C58.0376 18.907 57.6521 19.635 56.9527 20.8197C56.2675 22.0045 55.8821 22.6754 55.8107 22.8182C54.6545 25.202 54.0835 26.758 54.0835 27.4717C54.0835 27.8856 54.2405 28.0855 54.5546 28.0855C55.1256 28.0141 55.8107 27.5573 56.6101 26.7294C56.9099 26.4296 57.1954 26.1156 57.4809 25.8016C57.7663 25.4875 57.9519 25.3019 58.009 25.2591C58.0804 25.1878 58.166 25.1592 58.266 25.1592Z" fill="#292F36"/>
<path d="M62.5055 21.7761C64.8037 19.1639 66.7736 17.8506 68.3866 17.8506C68.7863 17.8506 69.1146 17.9648 69.3715 18.2075C69.6285 18.4502 69.7569 18.7499 69.7569 19.1353C69.7569 19.5207 69.4857 20.1488 68.9433 21.0481C68.4009 21.9331 67.9013 22.6897 67.4445 23.3035C67.2018 23.6175 66.9306 23.7746 66.6165 23.7746C66.3168 23.7746 66.0741 23.6604 65.9028 23.432C65.7315 23.2036 65.6459 22.9466 65.6459 22.6469C65.6459 21.976 66.0027 21.2051 66.7307 20.3629L66.7022 20.3344C66.3739 20.3629 65.5888 21.0053 64.3041 22.2329C63.0336 23.4748 61.9488 24.5882 61.0495 25.5589C60.1645 26.5438 59.1938 27.7286 58.1375 29.1418C57.8377 29.5557 57.5808 29.7699 57.3667 29.7699C57.1525 29.7699 56.8813 29.6985 56.5387 29.57C56.1961 29.4415 55.982 29.3416 55.9106 29.2845C55.8393 29.2274 55.7964 29.1275 55.7964 28.9848C55.7964 28.8563 55.8393 28.685 55.9106 28.5137C55.982 28.3281 56.139 28.0712 56.3389 27.7429C56.5387 27.4146 56.867 26.8721 57.2953 26.1299C57.7235 25.3876 58.3801 24.2599 59.2794 22.7611C60.1787 21.2622 60.7069 20.3487 60.8925 20.0346C61.2636 19.3923 61.5634 18.9212 61.806 18.6357C62.2485 18.079 62.9908 17.8078 64.0329 17.8078C64.2613 17.8078 64.3897 17.9505 64.3897 18.2503C64.3897 18.7071 63.9615 19.5778 63.1193 20.834L62.5055 21.7761Z" fill="#292F36"/>
<path d="M78.2503 18.807C78.2503 19.4493 77.9934 20.0203 77.4652 20.5056C76.937 20.991 76.3518 21.2336 75.6809 21.2336C75.4668 21.2336 75.324 21.1765 75.2526 21.0766C75.1813 20.9767 75.1527 20.8339 75.1527 20.6769C75.1527 20.5199 75.167 20.3486 75.2098 20.1916C74.853 20.3058 74.4675 20.4914 74.0393 20.734C73.6111 20.9767 73.0829 21.3336 72.4548 21.8189C71.8267 22.3042 71.5127 22.6468 71.5127 22.8895C71.5127 22.9609 71.6269 23.0037 71.8553 23.0037C72.0837 23.0037 72.4406 22.918 72.9116 22.761C73.3827 22.604 73.7253 22.5183 73.9108 22.5183C74.0964 22.5183 74.2249 22.5326 74.282 22.5469C74.4104 22.6183 74.5389 22.761 74.6959 22.9894C74.8387 23.2178 74.91 23.4034 74.91 23.5318C74.91 23.6603 74.7816 23.8316 74.5246 24.0457C74.2677 24.2598 73.9822 24.4169 73.6682 24.531C73.3399 24.6452 73.1257 24.7309 73.0258 24.788C70.9703 25.9442 69.9425 26.7293 69.9425 27.1576C69.9425 27.9141 70.5849 28.2995 71.8838 28.2995C72.7118 28.2995 73.554 28.0426 74.3819 27.5144C75.0956 27.0719 75.738 26.6151 76.309 26.1441C76.8799 25.6873 77.2368 25.4018 77.3938 25.2876C77.5508 25.1734 77.665 25.1306 77.7364 25.1306C77.9934 25.1306 78.1218 25.4161 78.1218 25.9871C78.1218 26.558 78.0933 26.9292 78.0219 27.1005C77.9505 27.286 77.765 27.5002 77.4366 27.7714C75.3526 29.47 73.3684 30.3265 71.5127 30.3265C70.5135 30.3265 69.7284 30.1838 69.1289 29.9125C68.0297 29.4129 67.4873 28.6564 67.4873 27.6286C67.4873 26.2868 68.4151 25.259 70.2851 24.5739C69.914 24.4026 69.6713 24.2027 69.5714 23.9315C69.4572 23.6746 69.4144 23.2606 69.4144 22.6896C69.4144 22.1186 69.6856 21.5191 70.2137 20.8768C70.7419 20.2344 71.3985 19.7063 72.1693 19.3066C73.8823 18.3787 75.4239 17.9219 76.7657 17.9219C77.0941 17.9219 77.4081 17.9933 77.7507 18.1503C78.0933 18.3073 78.2503 18.5215 78.2503 18.807Z" fill="#292F36"/>
<path d="M111.567 8.87192H111.753C111.81 8.87192 111.853 8.87192 111.867 8.88619C111.881 8.90046 111.895 8.90047 111.924 8.91474C111.952 8.91474 111.967 8.92901 111.995 8.95756C112.038 9.00039 112.11 9.04321 112.195 9.08603C112.309 9.17168 112.366 9.2716 112.366 9.3858C112.366 9.5 112.252 9.74266 112.024 10.1138C111.795 10.4849 111.21 11.3842 110.254 12.8402C108.07 16.1805 106.114 19.2923 104.387 22.1472C101.404 27.1148 99.8905 29.6128 99.862 29.6414C99.8334 29.6699 99.8191 29.6985 99.8048 29.727C99.7906 29.7841 99.762 29.8127 99.6906 29.8127L99.4908 29.7698L99.0911 29.8698L98.8627 29.8269L98.6201 29.8698H98.5344L97.7208 29.984C97.2354 29.984 96.9928 29.8127 96.9928 29.4843C96.9928 29.3416 97.0356 29.1703 97.1212 28.9705C97.421 28.2567 98.9484 25.673 101.689 21.1908C99.8905 21.2337 98.1062 21.2622 96.3504 21.2622L93.21 21.2479C92.6961 22.0759 91.9824 23.2464 91.0831 24.7737C89.1418 28.0997 88.114 29.7698 87.9855 29.7984C87.8571 29.8269 87.7571 29.8555 87.6715 29.8555C87.5858 29.8555 87.5145 29.8127 87.4574 29.7127C87.386 29.6271 87.3432 29.57 87.3146 29.57C87.2861 29.57 87.2433 29.5843 87.1576 29.6271C87.0862 29.6699 86.9721 29.6842 86.815 29.6842L86.4724 29.6699L86.344 29.5843C86.3297 29.5843 86.3154 29.5985 86.3012 29.6271C86.2869 29.6556 86.244 29.6699 86.187 29.6699C85.773 29.6699 85.5589 29.4986 85.5589 29.1418C85.5589 28.9134 85.6445 28.5993 85.8015 28.2139C85.9728 27.8285 86.187 27.4145 86.4582 26.972C86.7294 26.5295 87.4146 25.4589 88.5422 23.7888C89.6557 22.1187 90.2124 21.2765 90.2124 21.2622C90.0268 21.2479 89.8127 21.2479 89.57 21.2337C89.0704 21.2337 88.7278 21.2194 88.5137 21.1766C87.957 21.0766 87.5716 20.6199 87.3717 19.8062C87.2575 19.4065 87.2147 19.1496 87.229 19.0211C87.229 18.7642 87.3432 18.6214 87.5716 18.6214L87.957 18.7213C88.1568 18.7356 88.6136 18.7499 89.3559 18.7927C90.0982 18.8355 90.6263 18.8498 90.9546 18.8498L91.7826 18.8213C93.053 16.8371 94.5661 14.5817 96.3361 12.0694C95.0514 13.1257 93.624 13.6539 92.0538 13.6539C91.3115 13.6539 90.6691 13.4826 90.141 13.1257C89.5985 12.7689 89.3416 12.3121 89.3416 11.7696C89.3416 11.2272 89.5415 10.799 89.9554 10.4707C90.3694 10.1566 90.7548 9.9996 91.1259 9.9996C91.4971 9.9996 91.6826 10.0567 91.6826 10.1709C91.6826 10.2137 91.6255 10.2565 91.5256 10.2994C91.4257 10.3565 91.3686 10.3993 91.3686 10.4421C91.3686 10.5991 91.5399 10.7419 91.8825 10.8561C92.2251 10.9703 92.6105 11.0416 93.0387 11.0416C93.4669 11.0416 93.9808 10.9132 94.6089 10.6705C95.237 10.4278 95.8794 10.0995 96.5503 9.71411C97.4924 9.17168 98.2346 8.71489 98.7771 8.35803C99.0911 8.20101 99.3766 8.12964 99.6621 8.12964C99.9476 8.12964 100.133 8.15819 100.262 8.22956C100.39 8.28666 100.476 8.35803 100.533 8.41513C100.59 8.47223 100.661 8.55788 100.718 8.6578C100.79 8.75772 100.847 8.84337 100.918 8.88619C100.975 8.94329 101.018 9.00039 101.018 9.07176C101.018 9.14313 100.975 9.24305 100.904 9.40007C100.833 9.54282 100.461 10.1423 99.7906 11.1844C99.1197 12.2264 98.2489 13.554 97.1926 15.167C96.1363 16.78 95.3655 17.9648 94.8801 18.7356C97.4924 18.7356 100.304 18.6928 103.331 18.5929C107.013 12.7831 108.955 9.74266 109.155 9.45717C109.355 9.17168 109.54 8.98611 109.711 8.90046C109.883 8.81482 110.083 8.77199 110.325 8.77199L111.567 8.87192Z" fill="#292F36"/>
<path d="M116.335 18.6071C116.635 18.6071 116.934 18.7356 117.234 19.0068C117.548 19.278 117.691 19.6777 117.691 20.2202C117.691 20.7626 117.505 21.462 117.12 22.3328C116.734 23.1893 116.221 24.0743 115.55 24.9736C114.893 25.8586 114.151 26.7008 113.366 27.4859C112.566 28.271 111.71 28.9133 110.796 29.413C109.868 29.9126 109.04 30.1695 108.284 30.1695C107.527 30.1695 106.928 29.9268 106.471 29.4558C106.014 28.9847 105.786 28.3281 105.786 27.4859C105.786 26.6437 106 25.7016 106.414 24.6881C106.828 23.6603 107.356 22.761 108.013 21.9759C108.669 21.1908 109.369 20.4914 110.14 19.8633C111.724 18.5786 113.123 17.9505 114.322 17.9505C114.864 17.9505 115.264 18.079 115.535 18.3502C115.635 18.4358 115.678 18.5215 115.678 18.5786V18.6642C115.835 18.6071 116.049 18.6071 116.335 18.6071ZM114.864 20.5485H114.765C114.422 20.5485 114.251 20.3058 114.251 19.8062C113.537 20.0346 112.795 20.4485 112.01 21.0338C111.224 21.6191 110.525 22.3185 109.911 23.1179C108.655 24.7166 108.027 26.0727 108.013 27.1719C108.013 27.7143 108.213 27.9855 108.612 27.9855C109.012 27.9855 109.611 27.7143 110.397 27.2004C111.182 26.6865 111.967 25.93 112.752 24.945C113.523 23.9744 114.108 23.1179 114.493 22.4042C114.879 21.6904 115.079 21.2051 115.079 20.9339C115.064 20.6769 114.993 20.5485 114.864 20.5485Z" fill="#292F36"/>
<path d="M117.377 29.8412L116.663 29.8126H116.406C116.306 29.7841 116.206 29.727 116.092 29.6413C115.978 29.5557 115.892 29.4843 115.835 29.4557C115.778 29.4272 115.75 29.3415 115.75 29.2416C115.75 29.1417 115.792 28.9561 115.864 28.7135C117.762 24.531 119.604 21.1765 121.388 18.6785C121.588 18.4073 121.902 18.1931 122.33 18.0504C122.758 17.9076 123.187 17.8363 123.601 17.8363C123.843 17.8363 123.972 18.0218 123.972 18.4073C123.972 18.5214 123.929 18.6642 123.857 18.8355C123.786 19.0211 123.586 19.3065 123.272 19.7205C122.958 20.1345 122.587 20.6055 122.159 21.1194C121.731 21.6333 121.488 21.9473 121.431 22.033C122.773 20.6484 123.972 19.6206 125.057 18.9354C126.141 18.2645 126.912 17.9219 127.398 17.9219C127.883 17.9219 128.254 18.0647 128.511 18.3359C128.768 18.6071 128.896 18.9069 128.896 19.2209C128.896 19.5349 128.868 19.8062 128.825 20.006C128.782 20.2201 128.697 20.4342 128.582 20.6626C128.468 20.891 128.368 21.0909 128.283 21.2479C128.197 21.4049 128.054 21.619 127.869 21.876C127.669 22.1329 127.54 22.3185 127.469 22.4184C127.398 22.5183 127.241 22.7039 127.012 22.9751C126.784 23.2463 126.655 23.4033 126.641 23.4319C126.912 23.1607 127.298 22.761 127.783 22.2186C128.268 21.6761 128.682 21.2336 129.025 20.8768C129.367 20.5199 129.781 20.1059 130.295 19.6491C130.809 19.1924 131.28 18.8212 131.708 18.55C132.765 17.8934 133.835 17.5508 134.92 17.5508C135.291 17.5508 135.605 17.665 135.862 17.9076C136.119 18.1503 136.248 18.4215 136.248 18.7498C136.248 19.0782 135.848 19.8633 135.063 21.0909C134.278 22.3185 133.478 23.5604 132.693 24.8022C131.908 26.0441 131.509 26.8292 131.509 27.1575C131.509 27.6001 131.594 27.8713 131.751 27.9569C131.923 28.0426 132.122 28.0711 132.351 28.0568C132.579 28.0426 132.922 27.8855 133.336 27.6001C133.764 27.3146 134.135 27.0291 134.463 26.715C135.006 26.2297 135.491 25.7586 135.962 25.3019C136.062 25.2162 136.162 25.1734 136.291 25.1734C136.476 25.1734 136.59 25.3161 136.633 25.6016C136.676 25.8871 136.69 26.1726 136.69 26.4866C136.69 26.8007 136.662 27.0005 136.605 27.1147C136.319 27.6572 135.691 28.3281 134.735 29.1274C133.764 29.9125 132.836 30.3122 131.951 30.3122C131.837 30.3122 131.766 30.3122 131.723 30.2979C130.724 30.198 130.024 29.9268 129.639 29.47C129.253 29.0132 129.068 28.4708 129.068 27.857C129.068 27.2432 129.282 26.4724 129.71 25.5873C130.138 24.7023 130.595 23.8887 131.109 23.1749C131.623 22.4612 132.08 21.8046 132.508 21.2193C132.936 20.6341 133.15 20.32 133.15 20.2772C133.15 20.2344 133.107 20.2058 133.036 20.2058C132.736 20.2058 132.065 20.6912 131.009 21.6761C129.225 23.3462 127.683 24.9593 126.384 26.5009C126.041 26.9149 125.228 27.9426 123.957 29.6128C123.815 29.8126 123.572 29.9125 123.258 29.9125C122.944 29.9125 122.616 29.8554 122.273 29.727C121.93 29.5985 121.759 29.4415 121.759 29.2559C121.759 29.156 122.53 27.7856 124.086 25.1448C125.642 22.504 126.413 21.0623 126.413 20.8339C126.413 20.5913 126.27 20.4771 125.984 20.4771C125.699 20.4771 125.099 20.9053 124.2 21.7618C121.731 24.1171 119.818 26.4724 118.462 28.7991C118.376 28.9419 118.205 29.156 117.948 29.4415C117.691 29.727 117.462 29.8412 117.377 29.8412Z" fill="#292F36"/>
<path d="M145.683 18.807C145.683 19.4493 145.426 20.0203 144.898 20.5056C144.37 20.991 143.785 21.2336 143.114 21.2336C142.9 21.2336 142.757 21.1765 142.686 21.0766C142.614 20.9767 142.586 20.8339 142.586 20.6769C142.586 20.5199 142.6 20.3486 142.643 20.1916C142.286 20.3058 141.9 20.4914 141.472 20.734C141.044 20.9767 140.516 21.3336 139.888 21.8189C139.26 22.3042 138.946 22.6468 138.946 22.8895C138.946 22.9609 139.06 23.0037 139.288 23.0037C139.517 23.0037 139.873 22.918 140.345 22.761C140.816 22.604 141.158 22.5183 141.344 22.5183C141.529 22.5183 141.658 22.5326 141.715 22.5469C141.843 22.6183 141.972 22.761 142.129 22.9894C142.272 23.2178 142.343 23.4034 142.343 23.5318C142.343 23.6603 142.215 23.8316 141.958 24.0457C141.701 24.2598 141.415 24.4169 141.101 24.531C140.773 24.6452 140.559 24.7309 140.459 24.788C138.403 25.9442 137.375 26.7293 137.375 27.1576C137.375 27.9141 138.018 28.2995 139.317 28.2995C140.145 28.2995 140.987 28.0426 141.815 27.5144C142.529 27.0719 143.171 26.6151 143.742 26.1441C144.313 25.6873 144.67 25.4018 144.827 25.2876C144.984 25.1734 145.098 25.1306 145.169 25.1306C145.426 25.1306 145.555 25.4161 145.555 25.9871C145.555 26.558 145.526 26.9292 145.455 27.1005C145.383 27.286 145.198 27.5002 144.87 27.7714C142.785 29.47 140.801 30.3265 138.946 30.3265C137.946 30.3265 137.161 30.1838 136.562 29.9125C135.463 29.4129 134.92 28.6564 134.92 27.6286C134.92 26.2868 135.848 25.259 137.718 24.5739C137.347 24.4026 137.104 24.2027 137.004 23.9315C136.89 23.6746 136.847 23.2606 136.847 22.6896C136.847 22.1186 137.118 21.5191 137.647 20.8768C138.175 20.2344 138.831 19.7063 139.602 19.3066C141.315 18.3787 142.857 17.9219 144.199 17.9219C144.527 17.9219 144.841 17.9933 145.184 18.1503C145.526 18.3073 145.683 18.5215 145.683 18.807Z" fill="#292F36"/>
<path d="M0.982239 33.7952C4.73644 35.3654 8.56201 36.5787 12.459 37.5066C16.3274 38.4773 20.2671 39.1624 24.2069 39.5907C26.1768 39.8619 28.161 39.8904 30.1166 40.076C32.1007 40.0903 34.0706 40.2473 36.0405 40.1331L38.9953 40.0617C39.9803 40.0475 40.9652 39.919 41.9501 39.8619C42.9351 39.7762 43.92 39.7334 44.8907 39.6049L47.817 39.191C51.7425 38.7627 55.5538 37.8492 59.3508 36.75C63.1907 35.6937 66.8164 34.2948 70.6562 32.8388C74.5817 31.3971 78.8355 30.455 83.1465 30.9117C85.2734 31.183 87.4146 31.8681 89.1561 33.1243C90.9118 34.3662 92.168 36.1362 92.9673 37.9919C91.7683 36.3361 90.2695 34.98 88.5422 34.1378C86.815 33.2956 84.9165 32.953 83.0323 33.0101C79.221 33.0672 75.4668 34.3376 71.9409 35.9364C68.358 37.7064 64.4754 39.3052 60.5641 40.6327C56.6244 41.9031 52.5561 42.9166 48.4308 43.4305C40.2229 44.5154 31.8152 44.5297 23.7073 42.8881C19.6391 42.1458 15.6707 40.9896 11.8309 39.5193C8.01957 37.9919 4.29393 36.2076 0.982239 33.7952Z" fill="#292F36"/>
<path d="M137.49 10.0281C134.306 8.67204 131.066 7.61572 127.783 6.7878C124.514 5.91705 121.202 5.30325 117.876 4.87502C116.221 4.61807 114.536 4.56098 112.88 4.36113C111.21 4.31831 109.554 4.14701 107.884 4.21839C107.056 4.23266 106.214 4.23266 105.386 4.21839C104.558 4.21839 103.716 4.30403 102.888 4.33258C102.06 4.38968 101.218 4.40396 100.39 4.4896L97.9063 4.78937C94.5804 5.06058 91.3543 5.74576 88.1283 6.58796C84.8594 7.37306 81.7618 8.48647 78.4644 9.59989C75.0814 10.7276 71.4128 11.4128 67.73 10.8989C65.9171 10.5991 64.09 9.95675 62.6482 8.81479C61.178 7.6871 60.1787 6.14545 59.5649 4.53242C60.5784 5.9456 61.8346 7.10184 63.2763 7.81557C64.718 8.5293 66.3025 8.82906 67.887 8.81479C71.0845 8.81479 74.2534 7.78702 77.2511 6.50231C80.3058 5.04631 83.6603 3.7616 87.0006 2.70529C90.3694 1.69179 93.8809 0.920968 97.3924 0.549831C104.401 -0.192445 111.567 -0.0211512 118.433 1.60615C121.873 2.33415 125.228 3.44756 128.44 4.81792C131.666 6.21682 134.777 7.84412 137.49 10.0281Z" fill="#292F36"/>
</svg>
