<svg width="118" height="48" viewBox="0 0 118 48" fill="none" xmlns="http://www.w3.org/2000/svg">
<path d="M0.683228 29.7841V0.57843H17.8841V29.7699H0.683228V29.7841ZM15.8 22.9894L16.2425 19.7634L14.6437 19.6064L14.1584 22.0902C13.1592 22.5898 11.9316 22.8324 10.4613 22.8324C8.46286 22.8324 6.87837 22.2044 5.72214 20.9339C4.55163 19.6635 3.98064 17.9934 3.98064 15.9093C3.98064 13.8823 4.55163 12.2122 5.67932 10.8989C6.807 9.58566 8.29159 8.92903 10.133 8.92903C11.0751 8.92903 11.8745 9.04323 12.5168 9.25735C13.1592 9.47147 13.7444 9.75696 14.3011 10.1281L14.7722 12.5833L16.3995 12.4263L15.9285 9.20025C15.2433 8.615 14.4296 8.14394 13.4875 7.7728C12.5454 7.41593 11.3749 7.23036 9.99025 7.23036C8.34868 7.23036 6.9355 7.63005 5.75071 8.4437C4.56593 9.25735 3.63808 10.3279 2.98145 11.6555C2.32482 12.9973 1.9965 14.439 1.9965 15.9807C1.9965 18.4216 2.75305 20.4629 4.26615 22.0902C5.77925 23.7175 7.74913 24.5311 10.1901 24.5311C12.5882 24.5311 14.4582 24.0172 15.8 22.9894Z" fill="#292F36"/>
<path d="M23.7224 29.7841V0.57843H31.1166V29.7699H23.7224V29.7841ZM24.5075 24.2742H30.3457V22.8039H28.3331V6.50236H24.4789V7.97264H26.5202V22.8039H24.5075V24.2742Z" fill="#292F36"/>
<path d="M36.9549 29.7841V0.57843H49.9447V29.7699H36.9549V29.7841ZM39.3102 13.6539L38.8962 16.309L40.395 16.4945L40.8375 14.5104C41.4799 14.1963 42.2079 14.0393 43.0644 14.0393C44.0921 14.0393 44.7916 14.2963 45.1485 14.8101C45.5053 15.324 45.6766 15.9949 45.6766 16.8229V17.8506C45.3626 17.8221 45.0343 17.7935 44.6774 17.7792C44.3205 17.765 43.978 17.7507 43.6354 17.7507C42.3507 17.7507 41.123 17.9791 39.9811 18.4359C38.8391 18.8927 38.2681 19.8491 38.2681 21.2908C38.2681 22.5184 38.6536 23.3606 39.4387 23.8174C40.2238 24.2884 40.9946 24.5168 41.7511 24.5168C42.679 24.5168 43.4783 24.2742 44.135 23.7888C44.7916 23.3035 45.3055 22.7611 45.6766 22.133V22.1901C45.7052 23.746 46.4046 24.5168 47.775 24.5168C48.3031 24.5168 48.8027 24.3884 49.2738 24.1314L49.2453 22.9466C49.0169 23.0465 48.7599 23.1036 48.4744 23.1036C47.8178 23.1036 47.4895 22.6897 47.4895 21.8618V16.3946C47.4895 13.8252 46.1191 12.5405 43.3784 12.5405C42.6219 12.5405 41.9081 12.6261 41.2372 12.7974C40.552 12.983 39.9097 13.2685 39.3102 13.6539ZM45.6623 19.9632C45.591 20.9054 45.2056 21.6619 44.5061 22.2043C43.8067 22.7611 43.0644 23.0323 42.265 23.0323C41.7654 23.0323 41.2801 22.8895 40.8233 22.6183C40.3522 22.3471 40.1238 21.8332 40.1238 21.0909C40.1238 20.1916 40.4807 19.6207 41.1659 19.3494C41.8653 19.0782 42.6361 18.9498 43.5069 18.9498C43.8923 18.9498 44.2634 18.964 44.6203 19.0069C44.9771 19.0354 45.334 19.064 45.6481 19.0782V19.9632H45.6623Z" fill="#292F36"/>
<path d="M55.7972 29.7841V0.57843H67.6023V29.7699H55.7972V29.7841ZM66.3604 20.9482C66.3604 20.0346 66.1177 19.3637 65.6324 18.9212C65.147 18.4787 64.5618 18.1789 63.8481 18.0076C63.1343 17.8363 62.4349 17.6936 61.7355 17.5794C61.036 17.4652 60.4365 17.2796 59.9511 17.037C59.4658 16.7943 59.2231 16.3661 59.2231 15.7523C59.2231 15.167 59.4515 14.7388 59.9226 14.4533C60.3936 14.1678 60.9789 14.0393 61.7069 14.0393C62.5491 14.0393 63.3342 14.2249 64.0622 14.6103L64.3477 16.466L65.8465 16.2804L65.561 13.5968C65.0757 13.297 64.4904 13.0544 63.791 12.8545C63.0915 12.6547 62.3493 12.5405 61.5499 12.5405C60.4936 12.5405 59.5229 12.7974 58.6236 13.297C57.7243 13.7966 57.2818 14.6531 57.2818 15.8807C57.2818 16.78 57.5244 17.4367 58.0098 17.8506C58.4951 18.2789 59.0947 18.5643 59.8227 18.7356C60.5507 18.9069 61.2644 19.0497 61.9781 19.1782C62.6918 19.2923 63.2914 19.4922 63.7767 19.7491C64.262 20.0061 64.5047 20.4486 64.5047 21.0909C64.5047 21.7476 64.1906 22.2329 63.5625 22.5469C62.9345 22.861 62.2208 23.018 61.4071 23.018C60.4936 23.018 59.6371 22.8324 58.852 22.447L58.9234 20.9196L57.4816 20.7626L57.1248 23.3749C57.6244 23.7032 58.281 23.9744 59.0804 24.1885C59.8797 24.4026 60.6791 24.5168 61.4928 24.5168C62.8774 24.5168 64.0337 24.2028 64.9615 23.5604C65.8894 22.9466 66.3604 22.0616 66.3604 20.9482Z" fill="#292F36"/>
<path d="M73.4406 29.7841V0.57843H85.2456V29.7699H73.4406V29.7841ZM84.0037 20.9482C84.0037 20.0346 83.761 19.3637 83.2757 18.9212C82.7904 18.4787 82.2051 18.1789 81.4914 18.0076C80.7777 17.8363 80.0782 17.6936 79.3788 17.5794C78.6793 17.4652 78.0798 17.2796 77.5945 17.037C77.1091 16.7943 76.8664 16.3661 76.8664 15.7523C76.8664 15.167 77.0948 14.7388 77.5659 14.4533C78.0369 14.1678 78.6222 14.0393 79.3502 14.0393C80.1924 14.0393 80.9775 14.2249 81.7055 14.6103L81.991 16.466L83.4899 16.2804L83.2043 13.5968C82.719 13.297 82.1338 13.0544 81.4343 12.8545C80.7349 12.6547 79.9926 12.5405 79.1932 12.5405C78.1369 12.5405 77.1662 12.7974 76.2669 13.297C75.3676 13.7966 74.9251 14.6531 74.9251 15.8807C74.9251 16.78 75.1678 17.4367 75.6531 17.8506C76.1385 18.2789 76.738 18.5643 77.466 18.7356C78.194 18.9069 78.9077 19.0497 79.6214 19.1782C80.3352 19.2923 80.9347 19.4922 81.42 19.7491C81.9054 20.0061 82.148 20.4486 82.148 21.0909C82.148 21.7476 81.834 22.2329 81.206 22.5469C80.5779 22.861 79.8641 23.018 79.0505 23.018C78.1369 23.018 77.2804 22.8324 76.4953 22.447L76.5667 20.9196L75.125 20.7626L74.7681 23.3749C75.2677 23.7032 75.9244 23.9744 76.7237 24.1885C77.5231 24.4026 78.3225 24.5168 79.1361 24.5168C80.5208 24.5168 81.677 24.2028 82.6048 23.5604C83.5327 22.9466 84.0037 22.0616 84.0037 20.9482Z" fill="#292F36"/>
<path d="M91.0839 29.7841V0.57843H98.8636V29.7699H91.0839V29.7841ZM92.2259 24.2742H98.0642V22.8039H96.0514V12.7832H92.1831V14.2534H94.2528V22.8039H92.2402V24.2742H92.2259ZM94.0531 7.45876V9.81406H96.0229V7.45876H94.0531Z" fill="#292F36"/>
<path d="M104.702 29.7841V0.57843H117.135V29.7699H104.702V29.7841ZM116.021 20.4058L114.466 20.0632C114.123 22.0045 113.081 22.9752 111.368 22.9752C110.226 22.9752 109.355 22.5898 108.756 21.8189C108.156 21.0481 107.856 19.9632 107.856 18.5929C107.856 17.351 108.128 16.2947 108.656 15.4097C109.184 14.5247 110.069 14.0964 111.297 14.0964C112.239 14.0964 113.067 14.3105 113.752 14.7388L114.194 16.6801L115.693 16.4945L115.251 13.7253C114.665 13.2828 114.052 12.9687 113.409 12.7974C112.767 12.6261 112.067 12.5405 111.311 12.5405C109.527 12.5405 108.17 13.1686 107.285 14.4247C106.386 15.6809 105.944 17.1083 105.944 18.6928C105.944 20.5342 106.415 21.976 107.371 22.9894C108.313 24.0172 109.584 24.5311 111.168 24.5311C112.753 24.5311 113.923 24.0886 114.665 23.2178C115.408 22.3328 115.864 21.405 116.021 20.4058Z" fill="#292F36"/>
<path d="M8.12028 45.7287C7.79196 46.3282 7.30661 46.7993 6.67854 47.1276C6.03618 47.4559 5.27962 47.6272 4.3946 47.6272H1.83945V39.5764H4.3946C5.27962 39.5764 6.05046 39.7334 6.67854 40.0617C7.30661 40.39 7.79196 40.8468 8.12028 41.4606C8.44859 42.0744 8.60561 42.7739 8.60561 43.6018C8.60561 44.4155 8.44859 45.1292 8.12028 45.7287ZM6.70707 45.8857C7.26378 45.3433 7.53502 44.5867 7.53502 43.6018C7.53502 42.6169 7.26378 41.8603 6.70707 41.3179C6.15036 40.7754 5.35098 40.5042 4.29467 40.5042H2.85297V46.6994H4.29467C5.35098 46.6994 6.15036 46.4282 6.70707 45.8857Z" fill="#292F36"/>
<path d="M13.9015 40.4186V43.1736H16.9562V43.9729H13.9015V46.785H17.2988V47.6272H12.8594V39.5764H17.2988V40.4186H13.9015Z" fill="#292F36"/>
<path d="M26.3203 46.5996C26.1347 46.9279 25.8635 47.1991 25.4924 47.3989C25.1212 47.5988 24.6644 47.713 24.1077 47.713C23.5796 47.713 23.0942 47.6131 22.6803 47.4275C22.2663 47.2276 21.938 46.9707 21.6811 46.6281C21.4384 46.2855 21.2957 45.9001 21.2528 45.4719H22.3662C22.3948 45.7003 22.4662 45.9287 22.5946 46.1428C22.7231 46.3569 22.9229 46.5425 23.1656 46.6852C23.4083 46.828 23.7081 46.8993 24.0649 46.8993C24.5217 46.8993 24.8786 46.7851 25.1213 46.5282C25.3639 46.2712 25.4924 45.9715 25.4924 45.5861C25.4924 45.2578 25.4067 44.9865 25.2354 44.7867C25.0641 44.5869 24.85 44.4156 24.6074 44.3014C24.3647 44.1872 24.0078 44.0587 23.5796 43.916C23.0657 43.7447 22.666 43.5876 22.352 43.4449C22.038 43.3021 21.781 43.0738 21.5669 42.774C21.3528 42.4742 21.2386 42.0888 21.2386 41.6035C21.2386 41.1895 21.3385 40.8184 21.5383 40.4901C21.7382 40.176 22.0237 39.9191 22.4091 39.7478C22.7802 39.5765 23.237 39.4908 23.7366 39.4908C24.5217 39.4908 25.1641 39.6764 25.6208 40.0618C26.0919 40.4472 26.3488 40.9326 26.4345 41.5321H25.3211C25.264 41.2181 25.0927 40.9326 24.8358 40.6899C24.5645 40.4472 24.2077 40.3188 23.7509 40.3188C23.3369 40.3188 22.9944 40.433 22.7517 40.6471C22.4947 40.8612 22.3805 41.1752 22.3805 41.5607C22.3805 41.8747 22.4662 42.1316 22.6232 42.3172C22.7945 42.517 22.9943 42.6598 23.237 42.774C23.4797 42.8882 23.8222 43.0024 24.2362 43.1451C24.7501 43.3164 25.1641 43.4734 25.4924 43.6305C25.8064 43.7875 26.0776 44.0159 26.2917 44.3156C26.5059 44.6154 26.6201 45.0294 26.6201 45.5433C26.5915 45.9144 26.5059 46.2712 26.3203 46.5996Z" fill="#292F36"/>
<path d="M31.8874 39.5764V47.6272H30.8453V39.5764H31.8874Z" fill="#292F36"/>
<path d="M42.422 40.1903C43.0643 40.6614 43.4926 41.2894 43.7067 42.0888H42.6076C42.422 41.6035 42.0937 41.2038 41.6511 40.9183C41.2086 40.6185 40.6805 40.4758 40.0667 40.4758C39.5243 40.4758 39.0246 40.6043 38.5964 40.8612C38.1681 41.1181 37.8256 41.475 37.5686 41.9461C37.326 42.4171 37.1975 42.9738 37.1975 43.6162C37.1975 44.2728 37.326 44.8438 37.5686 45.3149C37.8113 45.7859 38.1681 46.1571 38.6107 46.414C39.0532 46.6709 39.5671 46.7994 40.1523 46.7994C40.6519 46.7994 41.0944 46.6852 41.5084 46.4854C41.9224 46.2712 42.2507 45.9572 42.5219 45.5575C42.7931 45.1578 42.9359 44.6725 42.993 44.1301H39.824V43.3592H43.8637V44.3156C43.7923 44.958 43.5925 45.529 43.2642 46.0571C42.9359 46.5853 42.4934 46.985 41.9367 47.2847C41.3799 47.5845 40.7518 47.7415 40.0381 47.7415C39.2673 47.7415 38.5821 47.5702 37.9826 47.2276C37.383 46.8851 36.9263 46.3997 36.5979 45.7716C36.2696 45.1578 36.0983 44.4441 36.0983 43.6447C36.0983 42.8454 36.2696 42.1316 36.5979 41.5178C36.9263 40.904 37.3973 40.4044 37.9826 40.0618C38.5678 39.7192 39.253 39.5337 40.0238 39.5337C40.9945 39.5051 41.7796 39.7335 42.422 40.1903Z" fill="#292F36"/>
<path d="M54.3983 47.6272H53.3563L49.1738 41.2608V47.6272H48.1318V39.5764H49.1738L53.3563 45.9428V39.5764H54.3983V47.6272Z" fill="#292F36"/>
<path d="M69.4151 46.5996C69.2296 46.9279 68.9583 47.1991 68.5872 47.3989C68.2161 47.5988 67.7593 47.713 67.2026 47.713C66.6744 47.713 66.1891 47.6131 65.7751 47.4275C65.3612 47.2276 65.0329 46.9707 64.7759 46.6281C64.5332 46.2855 64.3905 45.9001 64.3477 45.4719H65.4611C65.4896 45.7003 65.561 45.9287 65.6895 46.1428C65.818 46.3569 66.0178 46.5425 66.2604 46.6852C66.5031 46.828 66.8029 46.8993 67.1597 46.8993C67.6165 46.8993 67.9734 46.7851 68.216 46.5282C68.4587 46.2712 68.5872 45.9715 68.5872 45.5861C68.5872 45.2578 68.5016 44.9865 68.3303 44.7867C68.159 44.5869 67.9448 44.4156 67.7022 44.3014C67.4595 44.1872 67.1027 44.0587 66.6744 43.916C66.1606 43.7447 65.7608 43.5876 65.4468 43.4449C65.1327 43.3021 64.8758 43.0738 64.6617 42.774C64.4476 42.4742 64.3334 42.0888 64.3334 41.6035C64.3334 41.1895 64.4333 40.8184 64.6331 40.4901C64.833 40.176 65.1185 39.9191 65.5039 39.7478C65.8751 39.5765 66.3318 39.4908 66.8314 39.4908C67.6165 39.4908 68.2589 39.6764 68.7157 40.0618C69.1868 40.4472 69.4437 40.9326 69.5294 41.5321H68.4159C68.3588 41.2181 68.1875 40.9326 67.9305 40.6899C67.6593 40.4472 67.3025 40.3188 66.8457 40.3188C66.4318 40.3188 66.0892 40.433 65.8465 40.6471C65.5896 40.8612 65.4753 41.1752 65.4753 41.5607C65.4753 41.8747 65.561 42.1316 65.718 42.3172C65.8893 42.517 66.0891 42.6598 66.3318 42.774C66.5745 42.8882 66.9171 43.0024 67.331 43.1451C67.8449 43.3164 68.2589 43.4734 68.5872 43.6305C68.9012 43.7875 69.1724 44.0159 69.3866 44.3156C69.6007 44.6154 69.7148 45.0294 69.7148 45.5433C69.6863 45.9144 69.6007 46.2712 69.4151 46.5996Z" fill="#292F36"/>
<path d="M78.8792 39.5764V40.4186H76.6095V47.6272H75.5532V40.4186H73.2835V39.5764H78.8792Z" fill="#292F36"/>
<path d="M83.7325 39.5764V44.4012C83.7325 45.1863 83.9037 45.7715 84.2606 46.1569C84.6175 46.5281 85.0886 46.7279 85.7166 46.7279C86.3304 46.7279 86.8015 46.5424 87.1441 46.1569C87.4867 45.7715 87.658 45.2006 87.658 44.4155V39.5907H88.7001V44.4155C88.7001 45.5146 88.4288 46.3425 87.8864 46.8849C87.344 47.4417 86.6159 47.7129 85.7024 47.7129C84.8031 47.7129 84.0751 47.4417 83.5327 46.8849C82.9903 46.3282 82.719 45.5146 82.719 44.4155V39.5907H83.7325V39.5764Z" fill="#292F36"/>
<path d="M99.4487 45.7287C99.1204 46.3282 98.635 46.7993 98.007 47.1276C97.3646 47.4559 96.6081 47.6272 95.7231 47.6272H93.168V39.5764H95.7231C96.6081 39.5764 97.3789 39.7334 98.007 40.0617C98.635 40.39 99.1204 40.8468 99.4487 41.4606C99.777 42.0744 99.9341 42.7739 99.9341 43.6018C99.9341 44.4155 99.777 45.1292 99.4487 45.7287ZM98.0498 45.8857C98.6065 45.3433 98.8778 44.5867 98.8778 43.6018C98.8778 42.6169 98.6065 41.8603 98.0498 41.3179C97.4931 40.7754 96.6938 40.5042 95.6374 40.5042H94.1957V46.6994H95.6374C96.6795 46.6994 97.4931 46.4282 98.0498 45.8857Z" fill="#292F36"/>
<path d="M105.244 39.5764V47.6272H104.202V39.5764H105.244Z" fill="#292F36"/>
<path d="M115.465 40.0047C116.064 40.3616 116.535 40.8469 116.878 41.475C117.221 42.1031 117.392 42.8168 117.392 43.6019C117.392 44.387 117.221 45.1007 116.878 45.7288C116.535 46.3569 116.064 46.8422 115.465 47.1991C114.865 47.556 114.194 47.7272 113.452 47.7272C112.71 47.7272 112.025 47.556 111.425 47.1991C110.826 46.8422 110.34 46.3569 109.998 45.7288C109.655 45.1007 109.484 44.387 109.484 43.6019C109.484 42.8168 109.655 42.1031 109.998 41.475C110.34 40.8469 110.811 40.3616 111.425 40.0047C112.039 39.6479 112.71 39.4766 113.452 39.4766C114.194 39.4766 114.865 39.6479 115.465 40.0047ZM111.953 40.8326C111.511 41.0896 111.168 41.4464 110.926 41.9318C110.683 42.4028 110.554 42.9595 110.554 43.6019C110.554 44.23 110.683 44.7867 110.926 45.272C111.168 45.7574 111.511 46.1142 111.953 46.3712C112.396 46.6281 112.881 46.7566 113.438 46.7566C113.98 46.7566 114.48 46.6281 114.922 46.3712C115.365 46.1142 115.707 45.7431 115.95 45.272C116.193 44.801 116.321 44.2443 116.321 43.6162C116.321 42.9738 116.193 42.4171 115.95 41.9461C115.707 41.475 115.365 41.1039 114.922 40.8469C114.48 40.59 113.994 40.4615 113.438 40.4615C112.895 40.4472 112.396 40.5757 111.953 40.8326Z" fill="#292F36"/>
</svg>
